G04 #@! TF.GenerationSoftware,KiCad,Pcbnew,(5.1.5)-3*
G04 #@! TF.CreationDate,2021-02-05T10:45:09+01:00*
G04 #@! TF.ProjectId,kapuki-cursen-hw,6b617075-6b69-42d6-9375-7273656e2d68,rev?*
G04 #@! TF.SameCoordinates,Original*
G04 #@! TF.FileFunction,Copper,L2,Inr*
G04 #@! TF.FilePolarity,Positive*
%FSLAX46Y46*%
G04 Gerber Fmt 4.6, Leading zero omitted, Abs format (unit mm)*
G04 Created by KiCad (PCBNEW (5.1.5)-3) date 2021-02-05 10:45:09*
%MOMM*%
%LPD*%
G04 APERTURE LIST*
%ADD10O,1.700000X1.700000*%
%ADD11R,1.700000X1.700000*%
%ADD12C,0.800000*%
%ADD13C,0.254000*%
G04 APERTURE END LIST*
D10*
X127762000Y-91440000D03*
X125222000Y-91440000D03*
D11*
X122682000Y-91440000D03*
D10*
X141478000Y-91440000D03*
X144018000Y-91440000D03*
D11*
X146558000Y-91440000D03*
D12*
X141478000Y-86080600D03*
X140411200Y-84912200D03*
X136906000Y-87630000D03*
X134239000Y-90220800D03*
X132562600Y-87096600D03*
X128041400Y-81534000D03*
X130048000Y-81534000D03*
X141782800Y-81381600D03*
X132511800Y-74726800D03*
X128041400Y-82626200D03*
X127736600Y-86588600D03*
X129717800Y-87122000D03*
X129336800Y-84074000D03*
X135178800Y-74828400D03*
X122656600Y-81432400D03*
X121462800Y-82118200D03*
X124612400Y-89636600D03*
X126390400Y-89916000D03*
X147828000Y-82804000D03*
X147828000Y-85344000D03*
X147828000Y-81534000D03*
X146304000Y-81534000D03*
X123088400Y-89636600D03*
X121691400Y-89636600D03*
X145288000Y-88036400D03*
X141757400Y-87223600D03*
X132816600Y-81534000D03*
X123850400Y-83261200D03*
X122072400Y-83261200D03*
X136931400Y-86283800D03*
X139700000Y-92710000D03*
X137795000Y-92710000D03*
X137668000Y-89662000D03*
X147167600Y-87884000D03*
X121462800Y-85598000D03*
X123317000Y-87884000D03*
X123952000Y-77470000D03*
X133858000Y-77470000D03*
X139293600Y-86334600D03*
X135382000Y-77470000D03*
X140538200Y-83210400D03*
X135178800Y-89712800D03*
X131292600Y-91186000D03*
X139877800Y-83693000D03*
X143510000Y-81381600D03*
X139268200Y-87528400D03*
X124536200Y-81432400D03*
X123723400Y-81432400D03*
X124891800Y-87858600D03*
X121666000Y-87604600D03*
X140639800Y-81965800D03*
X138836400Y-91440000D03*
X133172200Y-84074000D03*
X131572000Y-87096600D03*
X128524000Y-85775800D03*
X128041400Y-83820000D03*
D13*
G36*
X148057001Y-92939000D02*
G01*
X121183000Y-92939000D01*
X121183000Y-92290000D01*
X121302450Y-92290000D01*
X121312625Y-92393310D01*
X121342760Y-92492650D01*
X121391695Y-92584202D01*
X121457552Y-92664448D01*
X121537798Y-92730305D01*
X121629350Y-92779240D01*
X121728690Y-92809375D01*
X121832000Y-92819550D01*
X122477250Y-92817000D01*
X122609000Y-92685250D01*
X122609000Y-91513000D01*
X121436750Y-91513000D01*
X121305000Y-91644750D01*
X121302450Y-92290000D01*
X121183000Y-92290000D01*
X121183000Y-90590000D01*
X121302450Y-90590000D01*
X121305000Y-91235250D01*
X121436750Y-91367000D01*
X122609000Y-91367000D01*
X122609000Y-90194750D01*
X122755000Y-90194750D01*
X122755000Y-91367000D01*
X122775000Y-91367000D01*
X122775000Y-91513000D01*
X122755000Y-91513000D01*
X122755000Y-92685250D01*
X122886750Y-92817000D01*
X123532000Y-92819550D01*
X123635310Y-92809375D01*
X123734650Y-92779240D01*
X123826202Y-92730305D01*
X123906448Y-92664448D01*
X123972305Y-92584202D01*
X124021240Y-92492650D01*
X124051375Y-92393310D01*
X124061550Y-92290000D01*
X124060984Y-92146752D01*
X124167172Y-92305675D01*
X124356325Y-92494828D01*
X124578746Y-92643444D01*
X124825886Y-92745813D01*
X125088249Y-92798000D01*
X125355751Y-92798000D01*
X125618114Y-92745813D01*
X125865254Y-92643444D01*
X126087675Y-92494828D01*
X126276828Y-92305675D01*
X126425444Y-92083254D01*
X126492000Y-91922574D01*
X126558556Y-92083254D01*
X126707172Y-92305675D01*
X126896325Y-92494828D01*
X127118746Y-92643444D01*
X127365886Y-92745813D01*
X127628249Y-92798000D01*
X127895751Y-92798000D01*
X128158114Y-92745813D01*
X128405254Y-92643444D01*
X128627675Y-92494828D01*
X128816828Y-92305675D01*
X128965444Y-92083254D01*
X129067813Y-91836114D01*
X129120000Y-91573751D01*
X129120000Y-91306249D01*
X129078293Y-91096570D01*
X130384600Y-91096570D01*
X130384600Y-91275430D01*
X130419494Y-91450854D01*
X130487941Y-91616099D01*
X130587311Y-91764816D01*
X130713784Y-91891289D01*
X130862501Y-91990659D01*
X131027746Y-92059106D01*
X131203170Y-92094000D01*
X131382030Y-92094000D01*
X131557454Y-92059106D01*
X131722699Y-91990659D01*
X131871416Y-91891289D01*
X131997889Y-91764816D01*
X132097259Y-91616099D01*
X132165706Y-91450854D01*
X132185653Y-91350570D01*
X137928400Y-91350570D01*
X137928400Y-91529430D01*
X137963294Y-91704854D01*
X138031741Y-91870099D01*
X138131111Y-92018816D01*
X138257584Y-92145289D01*
X138406301Y-92244659D01*
X138571546Y-92313106D01*
X138746970Y-92348000D01*
X138925830Y-92348000D01*
X139101254Y-92313106D01*
X139266499Y-92244659D01*
X139415216Y-92145289D01*
X139541689Y-92018816D01*
X139641059Y-91870099D01*
X139709506Y-91704854D01*
X139744400Y-91529430D01*
X139744400Y-91350570D01*
X139735585Y-91306249D01*
X140120000Y-91306249D01*
X140120000Y-91573751D01*
X140172187Y-91836114D01*
X140274556Y-92083254D01*
X140423172Y-92305675D01*
X140612325Y-92494828D01*
X140834746Y-92643444D01*
X141081886Y-92745813D01*
X141344249Y-92798000D01*
X141611751Y-92798000D01*
X141874114Y-92745813D01*
X142121254Y-92643444D01*
X142343675Y-92494828D01*
X142532828Y-92305675D01*
X142681444Y-92083254D01*
X142748000Y-91922574D01*
X142814556Y-92083254D01*
X142963172Y-92305675D01*
X143152325Y-92494828D01*
X143374746Y-92643444D01*
X143621886Y-92745813D01*
X143884249Y-92798000D01*
X144151751Y-92798000D01*
X144414114Y-92745813D01*
X144661254Y-92643444D01*
X144883675Y-92494828D01*
X145072828Y-92305675D01*
X145179016Y-92146752D01*
X145178450Y-92290000D01*
X145188625Y-92393310D01*
X145218760Y-92492650D01*
X145267695Y-92584202D01*
X145333552Y-92664448D01*
X145413798Y-92730305D01*
X145505350Y-92779240D01*
X145604690Y-92809375D01*
X145708000Y-92819550D01*
X146353250Y-92817000D01*
X146485000Y-92685250D01*
X146485000Y-91513000D01*
X146631000Y-91513000D01*
X146631000Y-92685250D01*
X146762750Y-92817000D01*
X147408000Y-92819550D01*
X147511310Y-92809375D01*
X147610650Y-92779240D01*
X147702202Y-92730305D01*
X147782448Y-92664448D01*
X147848305Y-92584202D01*
X147897240Y-92492650D01*
X147927375Y-92393310D01*
X147937550Y-92290000D01*
X147935000Y-91644750D01*
X147803250Y-91513000D01*
X146631000Y-91513000D01*
X146485000Y-91513000D01*
X146465000Y-91513000D01*
X146465000Y-91367000D01*
X146485000Y-91367000D01*
X146485000Y-90194750D01*
X146631000Y-90194750D01*
X146631000Y-91367000D01*
X147803250Y-91367000D01*
X147935000Y-91235250D01*
X147937550Y-90590000D01*
X147927375Y-90486690D01*
X147897240Y-90387350D01*
X147848305Y-90295798D01*
X147782448Y-90215552D01*
X147702202Y-90149695D01*
X147610650Y-90100760D01*
X147511310Y-90070625D01*
X147408000Y-90060450D01*
X146762750Y-90063000D01*
X146631000Y-90194750D01*
X146485000Y-90194750D01*
X146353250Y-90063000D01*
X145708000Y-90060450D01*
X145604690Y-90070625D01*
X145505350Y-90100760D01*
X145413798Y-90149695D01*
X145333552Y-90215552D01*
X145267695Y-90295798D01*
X145218760Y-90387350D01*
X145188625Y-90486690D01*
X145178450Y-90590000D01*
X145179016Y-90733248D01*
X145072828Y-90574325D01*
X144883675Y-90385172D01*
X144661254Y-90236556D01*
X144414114Y-90134187D01*
X144151751Y-90082000D01*
X143884249Y-90082000D01*
X143621886Y-90134187D01*
X143374746Y-90236556D01*
X143152325Y-90385172D01*
X142963172Y-90574325D01*
X142814556Y-90796746D01*
X142748000Y-90957426D01*
X142681444Y-90796746D01*
X142532828Y-90574325D01*
X142343675Y-90385172D01*
X142121254Y-90236556D01*
X141874114Y-90134187D01*
X141611751Y-90082000D01*
X141344249Y-90082000D01*
X141081886Y-90134187D01*
X140834746Y-90236556D01*
X140612325Y-90385172D01*
X140423172Y-90574325D01*
X140274556Y-90796746D01*
X140172187Y-91043886D01*
X140120000Y-91306249D01*
X139735585Y-91306249D01*
X139709506Y-91175146D01*
X139641059Y-91009901D01*
X139541689Y-90861184D01*
X139415216Y-90734711D01*
X139266499Y-90635341D01*
X139101254Y-90566894D01*
X138925830Y-90532000D01*
X138746970Y-90532000D01*
X138571546Y-90566894D01*
X138406301Y-90635341D01*
X138257584Y-90734711D01*
X138131111Y-90861184D01*
X138031741Y-91009901D01*
X137963294Y-91175146D01*
X137928400Y-91350570D01*
X132185653Y-91350570D01*
X132200600Y-91275430D01*
X132200600Y-91096570D01*
X132165706Y-90921146D01*
X132097259Y-90755901D01*
X131997889Y-90607184D01*
X131871416Y-90480711D01*
X131722699Y-90381341D01*
X131557454Y-90312894D01*
X131382030Y-90278000D01*
X131203170Y-90278000D01*
X131027746Y-90312894D01*
X130862501Y-90381341D01*
X130713784Y-90480711D01*
X130587311Y-90607184D01*
X130487941Y-90755901D01*
X130419494Y-90921146D01*
X130384600Y-91096570D01*
X129078293Y-91096570D01*
X129067813Y-91043886D01*
X128965444Y-90796746D01*
X128816828Y-90574325D01*
X128627675Y-90385172D01*
X128405254Y-90236556D01*
X128158114Y-90134187D01*
X127895751Y-90082000D01*
X127628249Y-90082000D01*
X127365886Y-90134187D01*
X127118746Y-90236556D01*
X126896325Y-90385172D01*
X126707172Y-90574325D01*
X126558556Y-90796746D01*
X126492000Y-90957426D01*
X126425444Y-90796746D01*
X126276828Y-90574325D01*
X126087675Y-90385172D01*
X125865254Y-90236556D01*
X125618114Y-90134187D01*
X125355751Y-90082000D01*
X125088249Y-90082000D01*
X124825886Y-90134187D01*
X124578746Y-90236556D01*
X124356325Y-90385172D01*
X124167172Y-90574325D01*
X124060984Y-90733248D01*
X124061550Y-90590000D01*
X124051375Y-90486690D01*
X124021240Y-90387350D01*
X123972305Y-90295798D01*
X123906448Y-90215552D01*
X123826202Y-90149695D01*
X123734650Y-90100760D01*
X123635310Y-90070625D01*
X123532000Y-90060450D01*
X122886750Y-90063000D01*
X122755000Y-90194750D01*
X122609000Y-90194750D01*
X122477250Y-90063000D01*
X121832000Y-90060450D01*
X121728690Y-90070625D01*
X121629350Y-90100760D01*
X121537798Y-90149695D01*
X121457552Y-90215552D01*
X121391695Y-90295798D01*
X121342760Y-90387350D01*
X121312625Y-90486690D01*
X121302450Y-90590000D01*
X121183000Y-90590000D01*
X121183000Y-89623370D01*
X134270800Y-89623370D01*
X134270800Y-89802230D01*
X134305694Y-89977654D01*
X134374141Y-90142899D01*
X134473511Y-90291616D01*
X134599984Y-90418089D01*
X134748701Y-90517459D01*
X134913946Y-90585906D01*
X135089370Y-90620800D01*
X135268230Y-90620800D01*
X135443654Y-90585906D01*
X135608899Y-90517459D01*
X135757616Y-90418089D01*
X135884089Y-90291616D01*
X135983459Y-90142899D01*
X136051906Y-89977654D01*
X136086800Y-89802230D01*
X136086800Y-89623370D01*
X136051906Y-89447946D01*
X135983459Y-89282701D01*
X135884089Y-89133984D01*
X135757616Y-89007511D01*
X135608899Y-88908141D01*
X135443654Y-88839694D01*
X135268230Y-88804800D01*
X135089370Y-88804800D01*
X134913946Y-88839694D01*
X134748701Y-88908141D01*
X134599984Y-89007511D01*
X134473511Y-89133984D01*
X134374141Y-89282701D01*
X134305694Y-89447946D01*
X134270800Y-89623370D01*
X121183000Y-89623370D01*
X121183000Y-88373912D01*
X121235901Y-88409259D01*
X121401146Y-88477706D01*
X121576570Y-88512600D01*
X121755430Y-88512600D01*
X121930854Y-88477706D01*
X122096099Y-88409259D01*
X122244816Y-88309889D01*
X122371289Y-88183416D01*
X122470659Y-88034699D01*
X122539106Y-87869454D01*
X122559053Y-87769170D01*
X123983800Y-87769170D01*
X123983800Y-87948030D01*
X124018694Y-88123454D01*
X124087141Y-88288699D01*
X124186511Y-88437416D01*
X124312984Y-88563889D01*
X124461701Y-88663259D01*
X124626946Y-88731706D01*
X124802370Y-88766600D01*
X124981230Y-88766600D01*
X125156654Y-88731706D01*
X125321899Y-88663259D01*
X125470616Y-88563889D01*
X125597089Y-88437416D01*
X125696459Y-88288699D01*
X125764906Y-88123454D01*
X125799800Y-87948030D01*
X125799800Y-87769170D01*
X125764906Y-87593746D01*
X125696459Y-87428501D01*
X125597089Y-87279784D01*
X125470616Y-87153311D01*
X125321899Y-87053941D01*
X125208985Y-87007170D01*
X130664000Y-87007170D01*
X130664000Y-87186030D01*
X130698894Y-87361454D01*
X130767341Y-87526699D01*
X130866711Y-87675416D01*
X130993184Y-87801889D01*
X131141901Y-87901259D01*
X131307146Y-87969706D01*
X131482570Y-88004600D01*
X131661430Y-88004600D01*
X131836854Y-87969706D01*
X132002099Y-87901259D01*
X132150816Y-87801889D01*
X132277289Y-87675416D01*
X132376659Y-87526699D01*
X132412997Y-87438970D01*
X138360200Y-87438970D01*
X138360200Y-87617830D01*
X138395094Y-87793254D01*
X138463541Y-87958499D01*
X138562911Y-88107216D01*
X138689384Y-88233689D01*
X138838101Y-88333059D01*
X139003346Y-88401506D01*
X139178770Y-88436400D01*
X139357630Y-88436400D01*
X139533054Y-88401506D01*
X139698299Y-88333059D01*
X139847016Y-88233689D01*
X139973489Y-88107216D01*
X140072859Y-87958499D01*
X140141306Y-87793254D01*
X140176200Y-87617830D01*
X140176200Y-87438970D01*
X140141306Y-87263546D01*
X140072859Y-87098301D01*
X139973489Y-86949584D01*
X139968105Y-86944200D01*
X139998889Y-86913416D01*
X140098259Y-86764699D01*
X140166706Y-86599454D01*
X140201600Y-86424030D01*
X140201600Y-86245170D01*
X140166706Y-86069746D01*
X140098259Y-85904501D01*
X139998889Y-85755784D01*
X139872416Y-85629311D01*
X139723699Y-85529941D01*
X139558454Y-85461494D01*
X139383030Y-85426600D01*
X139204170Y-85426600D01*
X139028746Y-85461494D01*
X138863501Y-85529941D01*
X138714784Y-85629311D01*
X138588311Y-85755784D01*
X138488941Y-85904501D01*
X138420494Y-86069746D01*
X138385600Y-86245170D01*
X138385600Y-86424030D01*
X138420494Y-86599454D01*
X138488941Y-86764699D01*
X138588311Y-86913416D01*
X138593695Y-86918800D01*
X138562911Y-86949584D01*
X138463541Y-87098301D01*
X138395094Y-87263546D01*
X138360200Y-87438970D01*
X132412997Y-87438970D01*
X132445106Y-87361454D01*
X132480000Y-87186030D01*
X132480000Y-87007170D01*
X132445106Y-86831746D01*
X132376659Y-86666501D01*
X132277289Y-86517784D01*
X132150816Y-86391311D01*
X132002099Y-86291941D01*
X131836854Y-86223494D01*
X131661430Y-86188600D01*
X131482570Y-86188600D01*
X131307146Y-86223494D01*
X131141901Y-86291941D01*
X130993184Y-86391311D01*
X130866711Y-86517784D01*
X130767341Y-86666501D01*
X130698894Y-86831746D01*
X130664000Y-87007170D01*
X125208985Y-87007170D01*
X125156654Y-86985494D01*
X124981230Y-86950600D01*
X124802370Y-86950600D01*
X124626946Y-86985494D01*
X124461701Y-87053941D01*
X124312984Y-87153311D01*
X124186511Y-87279784D01*
X124087141Y-87428501D01*
X124018694Y-87593746D01*
X123983800Y-87769170D01*
X122559053Y-87769170D01*
X122574000Y-87694030D01*
X122574000Y-87515170D01*
X122539106Y-87339746D01*
X122470659Y-87174501D01*
X122371289Y-87025784D01*
X122244816Y-86899311D01*
X122096099Y-86799941D01*
X121930854Y-86731494D01*
X121755430Y-86696600D01*
X121576570Y-86696600D01*
X121401146Y-86731494D01*
X121235901Y-86799941D01*
X121183000Y-86835288D01*
X121183000Y-85686370D01*
X127616000Y-85686370D01*
X127616000Y-85865230D01*
X127650894Y-86040654D01*
X127719341Y-86205899D01*
X127818711Y-86354616D01*
X127945184Y-86481089D01*
X128093901Y-86580459D01*
X128259146Y-86648906D01*
X128434570Y-86683800D01*
X128613430Y-86683800D01*
X128788854Y-86648906D01*
X128954099Y-86580459D01*
X129102816Y-86481089D01*
X129229289Y-86354616D01*
X129328659Y-86205899D01*
X129397106Y-86040654D01*
X129432000Y-85865230D01*
X129432000Y-85686370D01*
X129397106Y-85510946D01*
X129328659Y-85345701D01*
X129229289Y-85196984D01*
X129102816Y-85070511D01*
X128954099Y-84971141D01*
X128788854Y-84902694D01*
X128613430Y-84867800D01*
X128434570Y-84867800D01*
X128259146Y-84902694D01*
X128093901Y-84971141D01*
X127945184Y-85070511D01*
X127818711Y-85196984D01*
X127719341Y-85345701D01*
X127650894Y-85510946D01*
X127616000Y-85686370D01*
X121183000Y-85686370D01*
X121183000Y-83730570D01*
X127133400Y-83730570D01*
X127133400Y-83909430D01*
X127168294Y-84084854D01*
X127236741Y-84250099D01*
X127336111Y-84398816D01*
X127462584Y-84525289D01*
X127611301Y-84624659D01*
X127776546Y-84693106D01*
X127951970Y-84728000D01*
X128130830Y-84728000D01*
X128306254Y-84693106D01*
X128471499Y-84624659D01*
X128620216Y-84525289D01*
X128746689Y-84398816D01*
X128846059Y-84250099D01*
X128914506Y-84084854D01*
X128934453Y-83984570D01*
X132264200Y-83984570D01*
X132264200Y-84163430D01*
X132299094Y-84338854D01*
X132367541Y-84504099D01*
X132466911Y-84652816D01*
X132593384Y-84779289D01*
X132742101Y-84878659D01*
X132907346Y-84947106D01*
X133082770Y-84982000D01*
X133261630Y-84982000D01*
X133437054Y-84947106D01*
X133602299Y-84878659D01*
X133751016Y-84779289D01*
X133877489Y-84652816D01*
X133976859Y-84504099D01*
X134045306Y-84338854D01*
X134080200Y-84163430D01*
X134080200Y-83984570D01*
X134045306Y-83809146D01*
X133976859Y-83643901D01*
X133949911Y-83603570D01*
X138969800Y-83603570D01*
X138969800Y-83782430D01*
X139004694Y-83957854D01*
X139073141Y-84123099D01*
X139172511Y-84271816D01*
X139298984Y-84398289D01*
X139447701Y-84497659D01*
X139612946Y-84566106D01*
X139788370Y-84601000D01*
X139967230Y-84601000D01*
X140142654Y-84566106D01*
X140307899Y-84497659D01*
X140456616Y-84398289D01*
X140583089Y-84271816D01*
X140682459Y-84123099D01*
X140689503Y-84106093D01*
X140803054Y-84083506D01*
X140968299Y-84015059D01*
X141117016Y-83915689D01*
X141243489Y-83789216D01*
X141342859Y-83640499D01*
X141411306Y-83475254D01*
X141446200Y-83299830D01*
X141446200Y-83120970D01*
X141411306Y-82945546D01*
X141342859Y-82780301D01*
X141249350Y-82640355D01*
X141345089Y-82544616D01*
X141444459Y-82395899D01*
X141512906Y-82230654D01*
X141547800Y-82055230D01*
X141547800Y-81876370D01*
X141512906Y-81700946D01*
X141444459Y-81535701D01*
X141345089Y-81386984D01*
X141250275Y-81292170D01*
X142602000Y-81292170D01*
X142602000Y-81471030D01*
X142636894Y-81646454D01*
X142705341Y-81811699D01*
X142804711Y-81960416D01*
X142931184Y-82086889D01*
X143079901Y-82186259D01*
X143245146Y-82254706D01*
X143420570Y-82289600D01*
X143599430Y-82289600D01*
X143774854Y-82254706D01*
X143940099Y-82186259D01*
X144088816Y-82086889D01*
X144215289Y-81960416D01*
X144314659Y-81811699D01*
X144383106Y-81646454D01*
X144418000Y-81471030D01*
X144418000Y-81292170D01*
X144383106Y-81116746D01*
X144314659Y-80951501D01*
X144215289Y-80802784D01*
X144088816Y-80676311D01*
X143940099Y-80576941D01*
X143774854Y-80508494D01*
X143599430Y-80473600D01*
X143420570Y-80473600D01*
X143245146Y-80508494D01*
X143079901Y-80576941D01*
X142931184Y-80676311D01*
X142804711Y-80802784D01*
X142705341Y-80951501D01*
X142636894Y-81116746D01*
X142602000Y-81292170D01*
X141250275Y-81292170D01*
X141218616Y-81260511D01*
X141069899Y-81161141D01*
X140904654Y-81092694D01*
X140729230Y-81057800D01*
X140550370Y-81057800D01*
X140374946Y-81092694D01*
X140209701Y-81161141D01*
X140060984Y-81260511D01*
X139934511Y-81386984D01*
X139835141Y-81535701D01*
X139766694Y-81700946D01*
X139731800Y-81876370D01*
X139731800Y-82055230D01*
X139766694Y-82230654D01*
X139835141Y-82395899D01*
X139928650Y-82535845D01*
X139832911Y-82631584D01*
X139733541Y-82780301D01*
X139726497Y-82797307D01*
X139612946Y-82819894D01*
X139447701Y-82888341D01*
X139298984Y-82987711D01*
X139172511Y-83114184D01*
X139073141Y-83262901D01*
X139004694Y-83428146D01*
X138969800Y-83603570D01*
X133949911Y-83603570D01*
X133877489Y-83495184D01*
X133751016Y-83368711D01*
X133602299Y-83269341D01*
X133437054Y-83200894D01*
X133261630Y-83166000D01*
X133082770Y-83166000D01*
X132907346Y-83200894D01*
X132742101Y-83269341D01*
X132593384Y-83368711D01*
X132466911Y-83495184D01*
X132367541Y-83643901D01*
X132299094Y-83809146D01*
X132264200Y-83984570D01*
X128934453Y-83984570D01*
X128949400Y-83909430D01*
X128949400Y-83730570D01*
X128914506Y-83555146D01*
X128846059Y-83389901D01*
X128746689Y-83241184D01*
X128620216Y-83114711D01*
X128471499Y-83015341D01*
X128306254Y-82946894D01*
X128130830Y-82912000D01*
X127951970Y-82912000D01*
X127776546Y-82946894D01*
X127611301Y-83015341D01*
X127462584Y-83114711D01*
X127336111Y-83241184D01*
X127236741Y-83389901D01*
X127168294Y-83555146D01*
X127133400Y-83730570D01*
X121183000Y-83730570D01*
X121183000Y-81342970D01*
X122815400Y-81342970D01*
X122815400Y-81521830D01*
X122850294Y-81697254D01*
X122918741Y-81862499D01*
X123018111Y-82011216D01*
X123144584Y-82137689D01*
X123293301Y-82237059D01*
X123458546Y-82305506D01*
X123633970Y-82340400D01*
X123812830Y-82340400D01*
X123988254Y-82305506D01*
X124129800Y-82246875D01*
X124271346Y-82305506D01*
X124446770Y-82340400D01*
X124625630Y-82340400D01*
X124801054Y-82305506D01*
X124966299Y-82237059D01*
X125115016Y-82137689D01*
X125241489Y-82011216D01*
X125340859Y-81862499D01*
X125409306Y-81697254D01*
X125444200Y-81521830D01*
X125444200Y-81342970D01*
X125409306Y-81167546D01*
X125340859Y-81002301D01*
X125241489Y-80853584D01*
X125115016Y-80727111D01*
X124966299Y-80627741D01*
X124801054Y-80559294D01*
X124625630Y-80524400D01*
X124446770Y-80524400D01*
X124271346Y-80559294D01*
X124129800Y-80617925D01*
X123988254Y-80559294D01*
X123812830Y-80524400D01*
X123633970Y-80524400D01*
X123458546Y-80559294D01*
X123293301Y-80627741D01*
X123144584Y-80727111D01*
X123018111Y-80853584D01*
X122918741Y-81002301D01*
X122850294Y-81167546D01*
X122815400Y-81342970D01*
X121183000Y-81342970D01*
X121183000Y-77380570D01*
X123044000Y-77380570D01*
X123044000Y-77559430D01*
X123078894Y-77734854D01*
X123147341Y-77900099D01*
X123246711Y-78048816D01*
X123373184Y-78175289D01*
X123521901Y-78274659D01*
X123687146Y-78343106D01*
X123862570Y-78378000D01*
X124041430Y-78378000D01*
X124216854Y-78343106D01*
X124382099Y-78274659D01*
X124530816Y-78175289D01*
X124657289Y-78048816D01*
X124756659Y-77900099D01*
X124825106Y-77734854D01*
X124860000Y-77559430D01*
X124860000Y-77380570D01*
X132950000Y-77380570D01*
X132950000Y-77559430D01*
X132984894Y-77734854D01*
X133053341Y-77900099D01*
X133152711Y-78048816D01*
X133279184Y-78175289D01*
X133427901Y-78274659D01*
X133593146Y-78343106D01*
X133768570Y-78378000D01*
X133947430Y-78378000D01*
X134122854Y-78343106D01*
X134288099Y-78274659D01*
X134436816Y-78175289D01*
X134563289Y-78048816D01*
X134620000Y-77963942D01*
X134676711Y-78048816D01*
X134803184Y-78175289D01*
X134951901Y-78274659D01*
X135117146Y-78343106D01*
X135292570Y-78378000D01*
X135471430Y-78378000D01*
X135646854Y-78343106D01*
X135812099Y-78274659D01*
X135960816Y-78175289D01*
X136087289Y-78048816D01*
X136186659Y-77900099D01*
X136255106Y-77734854D01*
X136290000Y-77559430D01*
X136290000Y-77380570D01*
X136255106Y-77205146D01*
X136186659Y-77039901D01*
X136087289Y-76891184D01*
X135960816Y-76764711D01*
X135812099Y-76665341D01*
X135646854Y-76596894D01*
X135471430Y-76562000D01*
X135292570Y-76562000D01*
X135117146Y-76596894D01*
X134951901Y-76665341D01*
X134803184Y-76764711D01*
X134676711Y-76891184D01*
X134620000Y-76976058D01*
X134563289Y-76891184D01*
X134436816Y-76764711D01*
X134288099Y-76665341D01*
X134122854Y-76596894D01*
X133947430Y-76562000D01*
X133768570Y-76562000D01*
X133593146Y-76596894D01*
X133427901Y-76665341D01*
X133279184Y-76764711D01*
X133152711Y-76891184D01*
X133053341Y-77039901D01*
X132984894Y-77205146D01*
X132950000Y-77380570D01*
X124860000Y-77380570D01*
X124825106Y-77205146D01*
X124756659Y-77039901D01*
X124657289Y-76891184D01*
X124530816Y-76764711D01*
X124382099Y-76665341D01*
X124216854Y-76596894D01*
X124041430Y-76562000D01*
X123862570Y-76562000D01*
X123687146Y-76596894D01*
X123521901Y-76665341D01*
X123373184Y-76764711D01*
X123246711Y-76891184D01*
X123147341Y-77039901D01*
X123078894Y-77205146D01*
X123044000Y-77380570D01*
X121183000Y-77380570D01*
X121183000Y-74193000D01*
X148057000Y-74193000D01*
X148057001Y-92939000D01*
G37*
X148057001Y-92939000D02*
X121183000Y-92939000D01*
X121183000Y-92290000D01*
X121302450Y-92290000D01*
X121312625Y-92393310D01*
X121342760Y-92492650D01*
X121391695Y-92584202D01*
X121457552Y-92664448D01*
X121537798Y-92730305D01*
X121629350Y-92779240D01*
X121728690Y-92809375D01*
X121832000Y-92819550D01*
X122477250Y-92817000D01*
X122609000Y-92685250D01*
X122609000Y-91513000D01*
X121436750Y-91513000D01*
X121305000Y-91644750D01*
X121302450Y-92290000D01*
X121183000Y-92290000D01*
X121183000Y-90590000D01*
X121302450Y-90590000D01*
X121305000Y-91235250D01*
X121436750Y-91367000D01*
X122609000Y-91367000D01*
X122609000Y-90194750D01*
X122755000Y-90194750D01*
X122755000Y-91367000D01*
X122775000Y-91367000D01*
X122775000Y-91513000D01*
X122755000Y-91513000D01*
X122755000Y-92685250D01*
X122886750Y-92817000D01*
X123532000Y-92819550D01*
X123635310Y-92809375D01*
X123734650Y-92779240D01*
X123826202Y-92730305D01*
X123906448Y-92664448D01*
X123972305Y-92584202D01*
X124021240Y-92492650D01*
X124051375Y-92393310D01*
X124061550Y-92290000D01*
X124060984Y-92146752D01*
X124167172Y-92305675D01*
X124356325Y-92494828D01*
X124578746Y-92643444D01*
X124825886Y-92745813D01*
X125088249Y-92798000D01*
X125355751Y-92798000D01*
X125618114Y-92745813D01*
X125865254Y-92643444D01*
X126087675Y-92494828D01*
X126276828Y-92305675D01*
X126425444Y-92083254D01*
X126492000Y-91922574D01*
X126558556Y-92083254D01*
X126707172Y-92305675D01*
X126896325Y-92494828D01*
X127118746Y-92643444D01*
X127365886Y-92745813D01*
X127628249Y-92798000D01*
X127895751Y-92798000D01*
X128158114Y-92745813D01*
X128405254Y-92643444D01*
X128627675Y-92494828D01*
X128816828Y-92305675D01*
X128965444Y-92083254D01*
X129067813Y-91836114D01*
X129120000Y-91573751D01*
X129120000Y-91306249D01*
X129078293Y-91096570D01*
X130384600Y-91096570D01*
X130384600Y-91275430D01*
X130419494Y-91450854D01*
X130487941Y-91616099D01*
X130587311Y-91764816D01*
X130713784Y-91891289D01*
X130862501Y-91990659D01*
X131027746Y-92059106D01*
X131203170Y-92094000D01*
X131382030Y-92094000D01*
X131557454Y-92059106D01*
X131722699Y-91990659D01*
X131871416Y-91891289D01*
X131997889Y-91764816D01*
X132097259Y-91616099D01*
X132165706Y-91450854D01*
X132185653Y-91350570D01*
X137928400Y-91350570D01*
X137928400Y-91529430D01*
X137963294Y-91704854D01*
X138031741Y-91870099D01*
X138131111Y-92018816D01*
X138257584Y-92145289D01*
X138406301Y-92244659D01*
X138571546Y-92313106D01*
X138746970Y-92348000D01*
X138925830Y-92348000D01*
X139101254Y-92313106D01*
X139266499Y-92244659D01*
X139415216Y-92145289D01*
X139541689Y-92018816D01*
X139641059Y-91870099D01*
X139709506Y-91704854D01*
X139744400Y-91529430D01*
X139744400Y-91350570D01*
X139735585Y-91306249D01*
X140120000Y-91306249D01*
X140120000Y-91573751D01*
X140172187Y-91836114D01*
X140274556Y-92083254D01*
X140423172Y-92305675D01*
X140612325Y-92494828D01*
X140834746Y-92643444D01*
X141081886Y-92745813D01*
X141344249Y-92798000D01*
X141611751Y-92798000D01*
X141874114Y-92745813D01*
X142121254Y-92643444D01*
X142343675Y-92494828D01*
X142532828Y-92305675D01*
X142681444Y-92083254D01*
X142748000Y-91922574D01*
X142814556Y-92083254D01*
X142963172Y-92305675D01*
X143152325Y-92494828D01*
X143374746Y-92643444D01*
X143621886Y-92745813D01*
X143884249Y-92798000D01*
X144151751Y-92798000D01*
X144414114Y-92745813D01*
X144661254Y-92643444D01*
X144883675Y-92494828D01*
X145072828Y-92305675D01*
X145179016Y-92146752D01*
X145178450Y-92290000D01*
X145188625Y-92393310D01*
X145218760Y-92492650D01*
X145267695Y-92584202D01*
X145333552Y-92664448D01*
X145413798Y-92730305D01*
X145505350Y-92779240D01*
X145604690Y-92809375D01*
X145708000Y-92819550D01*
X146353250Y-92817000D01*
X146485000Y-92685250D01*
X146485000Y-91513000D01*
X146631000Y-91513000D01*
X146631000Y-92685250D01*
X146762750Y-92817000D01*
X147408000Y-92819550D01*
X147511310Y-92809375D01*
X147610650Y-92779240D01*
X147702202Y-92730305D01*
X147782448Y-92664448D01*
X147848305Y-92584202D01*
X147897240Y-92492650D01*
X147927375Y-92393310D01*
X147937550Y-92290000D01*
X147935000Y-91644750D01*
X147803250Y-91513000D01*
X146631000Y-91513000D01*
X146485000Y-91513000D01*
X146465000Y-91513000D01*
X146465000Y-91367000D01*
X146485000Y-91367000D01*
X146485000Y-90194750D01*
X146631000Y-90194750D01*
X146631000Y-91367000D01*
X147803250Y-91367000D01*
X147935000Y-91235250D01*
X147937550Y-90590000D01*
X147927375Y-90486690D01*
X147897240Y-90387350D01*
X147848305Y-90295798D01*
X147782448Y-90215552D01*
X147702202Y-90149695D01*
X147610650Y-90100760D01*
X147511310Y-90070625D01*
X147408000Y-90060450D01*
X146762750Y-90063000D01*
X146631000Y-90194750D01*
X146485000Y-90194750D01*
X146353250Y-90063000D01*
X145708000Y-90060450D01*
X145604690Y-90070625D01*
X145505350Y-90100760D01*
X145413798Y-90149695D01*
X145333552Y-90215552D01*
X145267695Y-90295798D01*
X145218760Y-90387350D01*
X145188625Y-90486690D01*
X145178450Y-90590000D01*
X145179016Y-90733248D01*
X145072828Y-90574325D01*
X144883675Y-90385172D01*
X144661254Y-90236556D01*
X144414114Y-90134187D01*
X144151751Y-90082000D01*
X143884249Y-90082000D01*
X143621886Y-90134187D01*
X143374746Y-90236556D01*
X143152325Y-90385172D01*
X142963172Y-90574325D01*
X142814556Y-90796746D01*
X142748000Y-90957426D01*
X142681444Y-90796746D01*
X142532828Y-90574325D01*
X142343675Y-90385172D01*
X142121254Y-90236556D01*
X141874114Y-90134187D01*
X141611751Y-90082000D01*
X141344249Y-90082000D01*
X141081886Y-90134187D01*
X140834746Y-90236556D01*
X140612325Y-90385172D01*
X140423172Y-90574325D01*
X140274556Y-90796746D01*
X140172187Y-91043886D01*
X140120000Y-91306249D01*
X139735585Y-91306249D01*
X139709506Y-91175146D01*
X139641059Y-91009901D01*
X139541689Y-90861184D01*
X139415216Y-90734711D01*
X139266499Y-90635341D01*
X139101254Y-90566894D01*
X138925830Y-90532000D01*
X138746970Y-90532000D01*
X138571546Y-90566894D01*
X138406301Y-90635341D01*
X138257584Y-90734711D01*
X138131111Y-90861184D01*
X138031741Y-91009901D01*
X137963294Y-91175146D01*
X137928400Y-91350570D01*
X132185653Y-91350570D01*
X132200600Y-91275430D01*
X132200600Y-91096570D01*
X132165706Y-90921146D01*
X132097259Y-90755901D01*
X131997889Y-90607184D01*
X131871416Y-90480711D01*
X131722699Y-90381341D01*
X131557454Y-90312894D01*
X131382030Y-90278000D01*
X131203170Y-90278000D01*
X131027746Y-90312894D01*
X130862501Y-90381341D01*
X130713784Y-90480711D01*
X130587311Y-90607184D01*
X130487941Y-90755901D01*
X130419494Y-90921146D01*
X130384600Y-91096570D01*
X129078293Y-91096570D01*
X129067813Y-91043886D01*
X128965444Y-90796746D01*
X128816828Y-90574325D01*
X128627675Y-90385172D01*
X128405254Y-90236556D01*
X128158114Y-90134187D01*
X127895751Y-90082000D01*
X127628249Y-90082000D01*
X127365886Y-90134187D01*
X127118746Y-90236556D01*
X126896325Y-90385172D01*
X126707172Y-90574325D01*
X126558556Y-90796746D01*
X126492000Y-90957426D01*
X126425444Y-90796746D01*
X126276828Y-90574325D01*
X126087675Y-90385172D01*
X125865254Y-90236556D01*
X125618114Y-90134187D01*
X125355751Y-90082000D01*
X125088249Y-90082000D01*
X124825886Y-90134187D01*
X124578746Y-90236556D01*
X124356325Y-90385172D01*
X124167172Y-90574325D01*
X124060984Y-90733248D01*
X124061550Y-90590000D01*
X124051375Y-90486690D01*
X124021240Y-90387350D01*
X123972305Y-90295798D01*
X123906448Y-90215552D01*
X123826202Y-90149695D01*
X123734650Y-90100760D01*
X123635310Y-90070625D01*
X123532000Y-90060450D01*
X122886750Y-90063000D01*
X122755000Y-90194750D01*
X122609000Y-90194750D01*
X122477250Y-90063000D01*
X121832000Y-90060450D01*
X121728690Y-90070625D01*
X121629350Y-90100760D01*
X121537798Y-90149695D01*
X121457552Y-90215552D01*
X121391695Y-90295798D01*
X121342760Y-90387350D01*
X121312625Y-90486690D01*
X121302450Y-90590000D01*
X121183000Y-90590000D01*
X121183000Y-89623370D01*
X134270800Y-89623370D01*
X134270800Y-89802230D01*
X134305694Y-89977654D01*
X134374141Y-90142899D01*
X134473511Y-90291616D01*
X134599984Y-90418089D01*
X134748701Y-90517459D01*
X134913946Y-90585906D01*
X135089370Y-90620800D01*
X135268230Y-90620800D01*
X135443654Y-90585906D01*
X135608899Y-90517459D01*
X135757616Y-90418089D01*
X135884089Y-90291616D01*
X135983459Y-90142899D01*
X136051906Y-89977654D01*
X136086800Y-89802230D01*
X136086800Y-89623370D01*
X136051906Y-89447946D01*
X135983459Y-89282701D01*
X135884089Y-89133984D01*
X135757616Y-89007511D01*
X135608899Y-88908141D01*
X135443654Y-88839694D01*
X135268230Y-88804800D01*
X135089370Y-88804800D01*
X134913946Y-88839694D01*
X134748701Y-88908141D01*
X134599984Y-89007511D01*
X134473511Y-89133984D01*
X134374141Y-89282701D01*
X134305694Y-89447946D01*
X134270800Y-89623370D01*
X121183000Y-89623370D01*
X121183000Y-88373912D01*
X121235901Y-88409259D01*
X121401146Y-88477706D01*
X121576570Y-88512600D01*
X121755430Y-88512600D01*
X121930854Y-88477706D01*
X122096099Y-88409259D01*
X122244816Y-88309889D01*
X122371289Y-88183416D01*
X122470659Y-88034699D01*
X122539106Y-87869454D01*
X122559053Y-87769170D01*
X123983800Y-87769170D01*
X123983800Y-87948030D01*
X124018694Y-88123454D01*
X124087141Y-88288699D01*
X124186511Y-88437416D01*
X124312984Y-88563889D01*
X124461701Y-88663259D01*
X124626946Y-88731706D01*
X124802370Y-88766600D01*
X124981230Y-88766600D01*
X125156654Y-88731706D01*
X125321899Y-88663259D01*
X125470616Y-88563889D01*
X125597089Y-88437416D01*
X125696459Y-88288699D01*
X125764906Y-88123454D01*
X125799800Y-87948030D01*
X125799800Y-87769170D01*
X125764906Y-87593746D01*
X125696459Y-87428501D01*
X125597089Y-87279784D01*
X125470616Y-87153311D01*
X125321899Y-87053941D01*
X125208985Y-87007170D01*
X130664000Y-87007170D01*
X130664000Y-87186030D01*
X130698894Y-87361454D01*
X130767341Y-87526699D01*
X130866711Y-87675416D01*
X130993184Y-87801889D01*
X131141901Y-87901259D01*
X131307146Y-87969706D01*
X131482570Y-88004600D01*
X131661430Y-88004600D01*
X131836854Y-87969706D01*
X132002099Y-87901259D01*
X132150816Y-87801889D01*
X132277289Y-87675416D01*
X132376659Y-87526699D01*
X132412997Y-87438970D01*
X138360200Y-87438970D01*
X138360200Y-87617830D01*
X138395094Y-87793254D01*
X138463541Y-87958499D01*
X138562911Y-88107216D01*
X138689384Y-88233689D01*
X138838101Y-88333059D01*
X139003346Y-88401506D01*
X139178770Y-88436400D01*
X139357630Y-88436400D01*
X139533054Y-88401506D01*
X139698299Y-88333059D01*
X139847016Y-88233689D01*
X139973489Y-88107216D01*
X140072859Y-87958499D01*
X140141306Y-87793254D01*
X140176200Y-87617830D01*
X140176200Y-87438970D01*
X140141306Y-87263546D01*
X140072859Y-87098301D01*
X139973489Y-86949584D01*
X139968105Y-86944200D01*
X139998889Y-86913416D01*
X140098259Y-86764699D01*
X140166706Y-86599454D01*
X140201600Y-86424030D01*
X140201600Y-86245170D01*
X140166706Y-86069746D01*
X140098259Y-85904501D01*
X139998889Y-85755784D01*
X139872416Y-85629311D01*
X139723699Y-85529941D01*
X139558454Y-85461494D01*
X139383030Y-85426600D01*
X139204170Y-85426600D01*
X139028746Y-85461494D01*
X138863501Y-85529941D01*
X138714784Y-85629311D01*
X138588311Y-85755784D01*
X138488941Y-85904501D01*
X138420494Y-86069746D01*
X138385600Y-86245170D01*
X138385600Y-86424030D01*
X138420494Y-86599454D01*
X138488941Y-86764699D01*
X138588311Y-86913416D01*
X138593695Y-86918800D01*
X138562911Y-86949584D01*
X138463541Y-87098301D01*
X138395094Y-87263546D01*
X138360200Y-87438970D01*
X132412997Y-87438970D01*
X132445106Y-87361454D01*
X132480000Y-87186030D01*
X132480000Y-87007170D01*
X132445106Y-86831746D01*
X132376659Y-86666501D01*
X132277289Y-86517784D01*
X132150816Y-86391311D01*
X132002099Y-86291941D01*
X131836854Y-86223494D01*
X131661430Y-86188600D01*
X131482570Y-86188600D01*
X131307146Y-86223494D01*
X131141901Y-86291941D01*
X130993184Y-86391311D01*
X130866711Y-86517784D01*
X130767341Y-86666501D01*
X130698894Y-86831746D01*
X130664000Y-87007170D01*
X125208985Y-87007170D01*
X125156654Y-86985494D01*
X124981230Y-86950600D01*
X124802370Y-86950600D01*
X124626946Y-86985494D01*
X124461701Y-87053941D01*
X124312984Y-87153311D01*
X124186511Y-87279784D01*
X124087141Y-87428501D01*
X124018694Y-87593746D01*
X123983800Y-87769170D01*
X122559053Y-87769170D01*
X122574000Y-87694030D01*
X122574000Y-87515170D01*
X122539106Y-87339746D01*
X122470659Y-87174501D01*
X122371289Y-87025784D01*
X122244816Y-86899311D01*
X122096099Y-86799941D01*
X121930854Y-86731494D01*
X121755430Y-86696600D01*
X121576570Y-86696600D01*
X121401146Y-86731494D01*
X121235901Y-86799941D01*
X121183000Y-86835288D01*
X121183000Y-85686370D01*
X127616000Y-85686370D01*
X127616000Y-85865230D01*
X127650894Y-86040654D01*
X127719341Y-86205899D01*
X127818711Y-86354616D01*
X127945184Y-86481089D01*
X128093901Y-86580459D01*
X128259146Y-86648906D01*
X128434570Y-86683800D01*
X128613430Y-86683800D01*
X128788854Y-86648906D01*
X128954099Y-86580459D01*
X129102816Y-86481089D01*
X129229289Y-86354616D01*
X129328659Y-86205899D01*
X129397106Y-86040654D01*
X129432000Y-85865230D01*
X129432000Y-85686370D01*
X129397106Y-85510946D01*
X129328659Y-85345701D01*
X129229289Y-85196984D01*
X129102816Y-85070511D01*
X128954099Y-84971141D01*
X128788854Y-84902694D01*
X128613430Y-84867800D01*
X128434570Y-84867800D01*
X128259146Y-84902694D01*
X128093901Y-84971141D01*
X127945184Y-85070511D01*
X127818711Y-85196984D01*
X127719341Y-85345701D01*
X127650894Y-85510946D01*
X127616000Y-85686370D01*
X121183000Y-85686370D01*
X121183000Y-83730570D01*
X127133400Y-83730570D01*
X127133400Y-83909430D01*
X127168294Y-84084854D01*
X127236741Y-84250099D01*
X127336111Y-84398816D01*
X127462584Y-84525289D01*
X127611301Y-84624659D01*
X127776546Y-84693106D01*
X127951970Y-84728000D01*
X128130830Y-84728000D01*
X128306254Y-84693106D01*
X128471499Y-84624659D01*
X128620216Y-84525289D01*
X128746689Y-84398816D01*
X128846059Y-84250099D01*
X128914506Y-84084854D01*
X128934453Y-83984570D01*
X132264200Y-83984570D01*
X132264200Y-84163430D01*
X132299094Y-84338854D01*
X132367541Y-84504099D01*
X132466911Y-84652816D01*
X132593384Y-84779289D01*
X132742101Y-84878659D01*
X132907346Y-84947106D01*
X133082770Y-84982000D01*
X133261630Y-84982000D01*
X133437054Y-84947106D01*
X133602299Y-84878659D01*
X133751016Y-84779289D01*
X133877489Y-84652816D01*
X133976859Y-84504099D01*
X134045306Y-84338854D01*
X134080200Y-84163430D01*
X134080200Y-83984570D01*
X134045306Y-83809146D01*
X133976859Y-83643901D01*
X133949911Y-83603570D01*
X138969800Y-83603570D01*
X138969800Y-83782430D01*
X139004694Y-83957854D01*
X139073141Y-84123099D01*
X139172511Y-84271816D01*
X139298984Y-84398289D01*
X139447701Y-84497659D01*
X139612946Y-84566106D01*
X139788370Y-84601000D01*
X139967230Y-84601000D01*
X140142654Y-84566106D01*
X140307899Y-84497659D01*
X140456616Y-84398289D01*
X140583089Y-84271816D01*
X140682459Y-84123099D01*
X140689503Y-84106093D01*
X140803054Y-84083506D01*
X140968299Y-84015059D01*
X141117016Y-83915689D01*
X141243489Y-83789216D01*
X141342859Y-83640499D01*
X141411306Y-83475254D01*
X141446200Y-83299830D01*
X141446200Y-83120970D01*
X141411306Y-82945546D01*
X141342859Y-82780301D01*
X141249350Y-82640355D01*
X141345089Y-82544616D01*
X141444459Y-82395899D01*
X141512906Y-82230654D01*
X141547800Y-82055230D01*
X141547800Y-81876370D01*
X141512906Y-81700946D01*
X141444459Y-81535701D01*
X141345089Y-81386984D01*
X141250275Y-81292170D01*
X142602000Y-81292170D01*
X142602000Y-81471030D01*
X142636894Y-81646454D01*
X142705341Y-81811699D01*
X142804711Y-81960416D01*
X142931184Y-82086889D01*
X143079901Y-82186259D01*
X143245146Y-82254706D01*
X143420570Y-82289600D01*
X143599430Y-82289600D01*
X143774854Y-82254706D01*
X143940099Y-82186259D01*
X144088816Y-82086889D01*
X144215289Y-81960416D01*
X144314659Y-81811699D01*
X144383106Y-81646454D01*
X144418000Y-81471030D01*
X144418000Y-81292170D01*
X144383106Y-81116746D01*
X144314659Y-80951501D01*
X144215289Y-80802784D01*
X144088816Y-80676311D01*
X143940099Y-80576941D01*
X143774854Y-80508494D01*
X143599430Y-80473600D01*
X143420570Y-80473600D01*
X143245146Y-80508494D01*
X143079901Y-80576941D01*
X142931184Y-80676311D01*
X142804711Y-80802784D01*
X142705341Y-80951501D01*
X142636894Y-81116746D01*
X142602000Y-81292170D01*
X141250275Y-81292170D01*
X141218616Y-81260511D01*
X141069899Y-81161141D01*
X140904654Y-81092694D01*
X140729230Y-81057800D01*
X140550370Y-81057800D01*
X140374946Y-81092694D01*
X140209701Y-81161141D01*
X140060984Y-81260511D01*
X139934511Y-81386984D01*
X139835141Y-81535701D01*
X139766694Y-81700946D01*
X139731800Y-81876370D01*
X139731800Y-82055230D01*
X139766694Y-82230654D01*
X139835141Y-82395899D01*
X139928650Y-82535845D01*
X139832911Y-82631584D01*
X139733541Y-82780301D01*
X139726497Y-82797307D01*
X139612946Y-82819894D01*
X139447701Y-82888341D01*
X139298984Y-82987711D01*
X139172511Y-83114184D01*
X139073141Y-83262901D01*
X139004694Y-83428146D01*
X138969800Y-83603570D01*
X133949911Y-83603570D01*
X133877489Y-83495184D01*
X133751016Y-83368711D01*
X133602299Y-83269341D01*
X133437054Y-83200894D01*
X133261630Y-83166000D01*
X133082770Y-83166000D01*
X132907346Y-83200894D01*
X132742101Y-83269341D01*
X132593384Y-83368711D01*
X132466911Y-83495184D01*
X132367541Y-83643901D01*
X132299094Y-83809146D01*
X132264200Y-83984570D01*
X128934453Y-83984570D01*
X128949400Y-83909430D01*
X128949400Y-83730570D01*
X128914506Y-83555146D01*
X128846059Y-83389901D01*
X128746689Y-83241184D01*
X128620216Y-83114711D01*
X128471499Y-83015341D01*
X128306254Y-82946894D01*
X128130830Y-82912000D01*
X127951970Y-82912000D01*
X127776546Y-82946894D01*
X127611301Y-83015341D01*
X127462584Y-83114711D01*
X127336111Y-83241184D01*
X127236741Y-83389901D01*
X127168294Y-83555146D01*
X127133400Y-83730570D01*
X121183000Y-83730570D01*
X121183000Y-81342970D01*
X122815400Y-81342970D01*
X122815400Y-81521830D01*
X122850294Y-81697254D01*
X122918741Y-81862499D01*
X123018111Y-82011216D01*
X123144584Y-82137689D01*
X123293301Y-82237059D01*
X123458546Y-82305506D01*
X123633970Y-82340400D01*
X123812830Y-82340400D01*
X123988254Y-82305506D01*
X124129800Y-82246875D01*
X124271346Y-82305506D01*
X124446770Y-82340400D01*
X124625630Y-82340400D01*
X124801054Y-82305506D01*
X124966299Y-82237059D01*
X125115016Y-82137689D01*
X125241489Y-82011216D01*
X125340859Y-81862499D01*
X125409306Y-81697254D01*
X125444200Y-81521830D01*
X125444200Y-81342970D01*
X125409306Y-81167546D01*
X125340859Y-81002301D01*
X125241489Y-80853584D01*
X125115016Y-80727111D01*
X124966299Y-80627741D01*
X124801054Y-80559294D01*
X124625630Y-80524400D01*
X124446770Y-80524400D01*
X124271346Y-80559294D01*
X124129800Y-80617925D01*
X123988254Y-80559294D01*
X123812830Y-80524400D01*
X123633970Y-80524400D01*
X123458546Y-80559294D01*
X123293301Y-80627741D01*
X123144584Y-80727111D01*
X123018111Y-80853584D01*
X122918741Y-81002301D01*
X122850294Y-81167546D01*
X122815400Y-81342970D01*
X121183000Y-81342970D01*
X121183000Y-77380570D01*
X123044000Y-77380570D01*
X123044000Y-77559430D01*
X123078894Y-77734854D01*
X123147341Y-77900099D01*
X123246711Y-78048816D01*
X123373184Y-78175289D01*
X123521901Y-78274659D01*
X123687146Y-78343106D01*
X123862570Y-78378000D01*
X124041430Y-78378000D01*
X124216854Y-78343106D01*
X124382099Y-78274659D01*
X124530816Y-78175289D01*
X124657289Y-78048816D01*
X124756659Y-77900099D01*
X124825106Y-77734854D01*
X124860000Y-77559430D01*
X124860000Y-77380570D01*
X132950000Y-77380570D01*
X132950000Y-77559430D01*
X132984894Y-77734854D01*
X133053341Y-77900099D01*
X133152711Y-78048816D01*
X133279184Y-78175289D01*
X133427901Y-78274659D01*
X133593146Y-78343106D01*
X133768570Y-78378000D01*
X133947430Y-78378000D01*
X134122854Y-78343106D01*
X134288099Y-78274659D01*
X134436816Y-78175289D01*
X134563289Y-78048816D01*
X134620000Y-77963942D01*
X134676711Y-78048816D01*
X134803184Y-78175289D01*
X134951901Y-78274659D01*
X135117146Y-78343106D01*
X135292570Y-78378000D01*
X135471430Y-78378000D01*
X135646854Y-78343106D01*
X135812099Y-78274659D01*
X135960816Y-78175289D01*
X136087289Y-78048816D01*
X136186659Y-77900099D01*
X136255106Y-77734854D01*
X136290000Y-77559430D01*
X136290000Y-77380570D01*
X136255106Y-77205146D01*
X136186659Y-77039901D01*
X136087289Y-76891184D01*
X135960816Y-76764711D01*
X135812099Y-76665341D01*
X135646854Y-76596894D01*
X135471430Y-76562000D01*
X135292570Y-76562000D01*
X135117146Y-76596894D01*
X134951901Y-76665341D01*
X134803184Y-76764711D01*
X134676711Y-76891184D01*
X134620000Y-76976058D01*
X134563289Y-76891184D01*
X134436816Y-76764711D01*
X134288099Y-76665341D01*
X134122854Y-76596894D01*
X133947430Y-76562000D01*
X133768570Y-76562000D01*
X133593146Y-76596894D01*
X133427901Y-76665341D01*
X133279184Y-76764711D01*
X133152711Y-76891184D01*
X133053341Y-77039901D01*
X132984894Y-77205146D01*
X132950000Y-77380570D01*
X124860000Y-77380570D01*
X124825106Y-77205146D01*
X124756659Y-77039901D01*
X124657289Y-76891184D01*
X124530816Y-76764711D01*
X124382099Y-76665341D01*
X124216854Y-76596894D01*
X124041430Y-76562000D01*
X123862570Y-76562000D01*
X123687146Y-76596894D01*
X123521901Y-76665341D01*
X123373184Y-76764711D01*
X123246711Y-76891184D01*
X123147341Y-77039901D01*
X123078894Y-77205146D01*
X123044000Y-77380570D01*
X121183000Y-77380570D01*
X121183000Y-74193000D01*
X148057000Y-74193000D01*
X148057001Y-92939000D01*
M02*
