G04 #@! TF.GenerationSoftware,KiCad,Pcbnew,(5.1.5)-3*
G04 #@! TF.CreationDate,2021-02-05T10:45:09+01:00*
G04 #@! TF.ProjectId,kapuki-cursen-hw,6b617075-6b69-42d6-9375-7273656e2d68,rev?*
G04 #@! TF.SameCoordinates,Original*
G04 #@! TF.FileFunction,Legend,Bot*
G04 #@! TF.FilePolarity,Positive*
%FSLAX46Y46*%
G04 Gerber Fmt 4.6, Leading zero omitted, Abs format (unit mm)*
G04 Created by KiCad (PCBNEW (5.1.5)-3) date 2021-02-05 10:45:09*
%MOMM*%
%LPD*%
G04 APERTURE LIST*
%ADD10C,0.150000*%
%ADD11C,0.120000*%
G04 APERTURE END LIST*
D10*
X122420095Y-88400000D02*
X122515333Y-88352380D01*
X122658190Y-88352380D01*
X122801047Y-88400000D01*
X122896285Y-88495238D01*
X122943904Y-88590476D01*
X122991523Y-88780952D01*
X122991523Y-88923809D01*
X122943904Y-89114285D01*
X122896285Y-89209523D01*
X122801047Y-89304761D01*
X122658190Y-89352380D01*
X122562952Y-89352380D01*
X122420095Y-89304761D01*
X122372476Y-89257142D01*
X122372476Y-88923809D01*
X122562952Y-88923809D01*
X127928666Y-89352380D02*
X128262000Y-88876190D01*
X128500095Y-89352380D02*
X128500095Y-88352380D01*
X128119142Y-88352380D01*
X128023904Y-88400000D01*
X127976285Y-88447619D01*
X127928666Y-88542857D01*
X127928666Y-88685714D01*
X127976285Y-88780952D01*
X128023904Y-88828571D01*
X128119142Y-88876190D01*
X128500095Y-88876190D01*
X127595333Y-88352380D02*
X126928666Y-89352380D01*
X126928666Y-88352380D02*
X127595333Y-89352380D01*
X125983904Y-88352380D02*
X125412476Y-88352380D01*
X125698190Y-89352380D02*
X125698190Y-88352380D01*
X125174380Y-88352380D02*
X124507714Y-89352380D01*
X124507714Y-88352380D02*
X125174380Y-89352380D01*
X135545342Y-88549171D02*
X135402485Y-88596790D01*
X135354866Y-88644409D01*
X135307247Y-88739647D01*
X135307247Y-88882504D01*
X135354866Y-88977742D01*
X135402485Y-89025361D01*
X135497723Y-89072980D01*
X135878676Y-89072980D01*
X135878676Y-88072980D01*
X135545342Y-88072980D01*
X135450104Y-88120600D01*
X135402485Y-88168219D01*
X135354866Y-88263457D01*
X135354866Y-88358695D01*
X135402485Y-88453933D01*
X135450104Y-88501552D01*
X135545342Y-88549171D01*
X135878676Y-88549171D01*
X134688200Y-88072980D02*
X134497723Y-88072980D01*
X134402485Y-88120600D01*
X134307247Y-88215838D01*
X134259628Y-88406314D01*
X134259628Y-88739647D01*
X134307247Y-88930123D01*
X134402485Y-89025361D01*
X134497723Y-89072980D01*
X134688200Y-89072980D01*
X134783438Y-89025361D01*
X134878676Y-88930123D01*
X134926295Y-88739647D01*
X134926295Y-88406314D01*
X134878676Y-88215838D01*
X134783438Y-88120600D01*
X134688200Y-88072980D01*
X133640580Y-88072980D02*
X133450104Y-88072980D01*
X133354866Y-88120600D01*
X133259628Y-88215838D01*
X133212009Y-88406314D01*
X133212009Y-88739647D01*
X133259628Y-88930123D01*
X133354866Y-89025361D01*
X133450104Y-89072980D01*
X133640580Y-89072980D01*
X133735819Y-89025361D01*
X133831057Y-88930123D01*
X133878676Y-88739647D01*
X133878676Y-88406314D01*
X133831057Y-88215838D01*
X133735819Y-88120600D01*
X133640580Y-88072980D01*
X132926295Y-88072980D02*
X132354866Y-88072980D01*
X132640580Y-89072980D02*
X132640580Y-88072980D01*
D11*
X146050000Y-89408000D02*
X147066000Y-89408000D01*
X144018000Y-89916000D02*
X144018000Y-88900000D01*
X143510000Y-89408000D02*
X144526000Y-89408000D01*
X141732000Y-89662000D02*
X142240000Y-89662000D01*
X141732000Y-89662000D02*
X141732000Y-89154000D01*
X141224000Y-89154000D02*
X141732000Y-89154000D01*
X141224000Y-89154000D02*
X141224000Y-89662000D01*
X140716000Y-89662000D02*
X141224000Y-89662000D01*
X136591400Y-92860600D02*
X132191400Y-92860600D01*
X132191400Y-92860600D02*
X132191400Y-92740600D01*
X132191400Y-91730600D02*
X132191400Y-90590600D01*
X132191400Y-89580600D02*
X132191400Y-89460600D01*
X132191400Y-89460600D02*
X136591400Y-89460600D01*
X136591400Y-89460600D02*
X136591400Y-89580600D01*
X136591400Y-90590600D02*
X136591400Y-91730600D01*
X136591400Y-92740600D02*
X136591400Y-92860600D01*
X130377476Y-85532700D02*
X130886924Y-85532700D01*
X130377476Y-86577700D02*
X130886924Y-86577700D01*
X138698500Y-86359276D02*
X138698500Y-86868724D01*
X137653500Y-86359276D02*
X137653500Y-86868724D01*
X131464267Y-84584000D02*
X131171733Y-84584000D01*
X131464267Y-83564000D02*
X131171733Y-83564000D01*
D10*
X133592866Y-86507580D02*
X133926200Y-86031390D01*
X134164295Y-86507580D02*
X134164295Y-85507580D01*
X133783342Y-85507580D01*
X133688104Y-85555200D01*
X133640485Y-85602819D01*
X133592866Y-85698057D01*
X133592866Y-85840914D01*
X133640485Y-85936152D01*
X133688104Y-85983771D01*
X133783342Y-86031390D01*
X134164295Y-86031390D01*
X133021438Y-85936152D02*
X133116676Y-85888533D01*
X133164295Y-85840914D01*
X133211914Y-85745676D01*
X133211914Y-85698057D01*
X133164295Y-85602819D01*
X133116676Y-85555200D01*
X133021438Y-85507580D01*
X132830961Y-85507580D01*
X132735723Y-85555200D01*
X132688104Y-85602819D01*
X132640485Y-85698057D01*
X132640485Y-85745676D01*
X132688104Y-85840914D01*
X132735723Y-85888533D01*
X132830961Y-85936152D01*
X133021438Y-85936152D01*
X133116676Y-85983771D01*
X133164295Y-86031390D01*
X133211914Y-86126628D01*
X133211914Y-86317104D01*
X133164295Y-86412342D01*
X133116676Y-86459961D01*
X133021438Y-86507580D01*
X132830961Y-86507580D01*
X132735723Y-86459961D01*
X132688104Y-86412342D01*
X132640485Y-86317104D01*
X132640485Y-86126628D01*
X132688104Y-86031390D01*
X132735723Y-85983771D01*
X132830961Y-85936152D01*
X138342666Y-84729580D02*
X138676000Y-84253390D01*
X138914095Y-84729580D02*
X138914095Y-83729580D01*
X138533142Y-83729580D01*
X138437904Y-83777200D01*
X138390285Y-83824819D01*
X138342666Y-83920057D01*
X138342666Y-84062914D01*
X138390285Y-84158152D01*
X138437904Y-84205771D01*
X138533142Y-84253390D01*
X138914095Y-84253390D01*
X137485523Y-83729580D02*
X137676000Y-83729580D01*
X137771238Y-83777200D01*
X137818857Y-83824819D01*
X137914095Y-83967676D01*
X137961714Y-84158152D01*
X137961714Y-84539104D01*
X137914095Y-84634342D01*
X137866476Y-84681961D01*
X137771238Y-84729580D01*
X137580761Y-84729580D01*
X137485523Y-84681961D01*
X137437904Y-84634342D01*
X137390285Y-84539104D01*
X137390285Y-84301009D01*
X137437904Y-84205771D01*
X137485523Y-84158152D01*
X137580761Y-84110533D01*
X137771238Y-84110533D01*
X137866476Y-84158152D01*
X137914095Y-84205771D01*
X137961714Y-84301009D01*
X131960857Y-83001142D02*
X132008476Y-83048761D01*
X132151333Y-83096380D01*
X132246571Y-83096380D01*
X132389428Y-83048761D01*
X132484666Y-82953523D01*
X132532285Y-82858285D01*
X132579904Y-82667809D01*
X132579904Y-82524952D01*
X132532285Y-82334476D01*
X132484666Y-82239238D01*
X132389428Y-82144000D01*
X132246571Y-82096380D01*
X132151333Y-82096380D01*
X132008476Y-82144000D01*
X131960857Y-82191619D01*
X131008476Y-83096380D02*
X131579904Y-83096380D01*
X131294190Y-83096380D02*
X131294190Y-82096380D01*
X131389428Y-82239238D01*
X131484666Y-82334476D01*
X131579904Y-82382095D01*
X130056095Y-83096380D02*
X130627523Y-83096380D01*
X130341809Y-83096380D02*
X130341809Y-82096380D01*
X130437047Y-82239238D01*
X130532285Y-82334476D01*
X130627523Y-82382095D01*
M02*
