M48
INCH
T1C0.0157
T2C0.0394
%
G90
G05
T1
X4.782Y-3.233
X4.782Y-3.37
X4.79Y-3.449
X4.791Y-3.529
X4.806Y-3.278
X4.829Y-3.206
X4.846Y-3.529
X4.855Y-3.46
X4.871Y-3.206
X4.876Y-3.278
X4.88Y-3.05
X4.903Y-3.206
X4.906Y-3.529
X4.917Y-3.459
X4.976Y-3.54
X5.029Y-3.409
X5.041Y-3.21
X5.041Y-3.253
X5.041Y-3.3
X5.06Y-3.377
X5.092Y-3.31
X5.107Y-3.43
X5.12Y-3.21
X5.169Y-3.59
X5.18Y-3.429
X5.217Y-2.942
X5.219Y-3.429
X5.229Y-3.21
X5.243Y-3.31
X5.27Y-3.05
X5.285Y-3.552
X5.322Y-2.946
X5.322Y-3.532
X5.33Y-3.05
X5.39Y-3.45
X5.391Y-3.397
X5.42Y-3.53
X5.425Y-3.65
X5.466Y-3.6
X5.483Y-3.446
X5.484Y-3.399
X5.5Y-3.65
X5.507Y-3.295
X5.528Y-3.343
X5.533Y-3.276
X5.537Y-3.227
X5.57Y-3.389
X5.581Y-3.434
X5.582Y-3.204
X5.65Y-3.204
X5.72Y-3.466
X5.76Y-3.21
X5.794Y-3.46
X5.82Y-3.21
X5.82Y-3.26
X5.82Y-3.36
T2
X4.83Y-3.6
X4.93Y-3.6
X5.03Y-3.6
X5.57Y-3.6
X5.67Y-3.6
X5.77Y-3.6
T0
M30
