G04 #@! TF.GenerationSoftware,KiCad,Pcbnew,(5.1.5)-3*
G04 #@! TF.CreationDate,2021-02-05T10:45:09+01:00*
G04 #@! TF.ProjectId,kapuki-cursen-hw,6b617075-6b69-42d6-9375-7273656e2d68,rev?*
G04 #@! TF.SameCoordinates,Original*
G04 #@! TF.FileFunction,Copper,L3,Inr*
G04 #@! TF.FilePolarity,Positive*
%FSLAX46Y46*%
G04 Gerber Fmt 4.6, Leading zero omitted, Abs format (unit mm)*
G04 Created by KiCad (PCBNEW (5.1.5)-3) date 2021-02-05 10:45:09*
%MOMM*%
%LPD*%
G04 APERTURE LIST*
%ADD10O,1.700000X1.700000*%
%ADD11R,1.700000X1.700000*%
%ADD12C,0.800000*%
%ADD13C,0.254000*%
G04 APERTURE END LIST*
D10*
X127762000Y-91440000D03*
X125222000Y-91440000D03*
D11*
X122682000Y-91440000D03*
D10*
X141478000Y-91440000D03*
X144018000Y-91440000D03*
D11*
X146558000Y-91440000D03*
D12*
X141478000Y-86080600D03*
X140411200Y-84912200D03*
X136906000Y-87630000D03*
X134239000Y-90220800D03*
X132562600Y-87096600D03*
X128041400Y-81534000D03*
X130048000Y-81534000D03*
X141782800Y-81381600D03*
X132511800Y-74726800D03*
X128041400Y-82626200D03*
X127736600Y-86588600D03*
X129717800Y-87122000D03*
X129336800Y-84074000D03*
X135178800Y-74828400D03*
X122656600Y-81432400D03*
X121462800Y-82118200D03*
X124612400Y-89636600D03*
X126390400Y-89916000D03*
X147828000Y-82804000D03*
X147828000Y-85344000D03*
X147828000Y-81534000D03*
X146304000Y-81534000D03*
X123088400Y-89636600D03*
X121691400Y-89636600D03*
X145288000Y-88036400D03*
X141757400Y-87223600D03*
X132816600Y-81534000D03*
X123850400Y-83261200D03*
X122072400Y-83261200D03*
X136931400Y-86283800D03*
X139700000Y-92710000D03*
X137795000Y-92710000D03*
X137668000Y-89662000D03*
X147167600Y-87884000D03*
X121462800Y-85598000D03*
X123317000Y-87884000D03*
X123952000Y-77470000D03*
X133858000Y-77470000D03*
X139293600Y-86334600D03*
X135382000Y-77470000D03*
X140538200Y-83210400D03*
X135178800Y-89712800D03*
X131292600Y-91186000D03*
X139877800Y-83693000D03*
X143510000Y-81381600D03*
X139268200Y-87528400D03*
X124536200Y-81432400D03*
X123723400Y-81432400D03*
X124891800Y-87858600D03*
X121666000Y-87604600D03*
X140639800Y-81965800D03*
X138836400Y-91440000D03*
X133172200Y-84074000D03*
X131572000Y-87096600D03*
X128524000Y-85775800D03*
X128041400Y-83820000D03*
D13*
G36*
X131707141Y-74296701D02*
G01*
X131638694Y-74461946D01*
X131603800Y-74637370D01*
X131603800Y-74816230D01*
X131638694Y-74991654D01*
X131707141Y-75156899D01*
X131806511Y-75305616D01*
X131932984Y-75432089D01*
X132081701Y-75531459D01*
X132246946Y-75599906D01*
X132422370Y-75634800D01*
X132601230Y-75634800D01*
X132776654Y-75599906D01*
X132941899Y-75531459D01*
X133090616Y-75432089D01*
X133217089Y-75305616D01*
X133316459Y-75156899D01*
X133384906Y-74991654D01*
X133419800Y-74816230D01*
X133419800Y-74637370D01*
X133384906Y-74461946D01*
X133316459Y-74296701D01*
X133247168Y-74193000D01*
X134530095Y-74193000D01*
X134473511Y-74249584D01*
X134374141Y-74398301D01*
X134305694Y-74563546D01*
X134270800Y-74738970D01*
X134270800Y-74917830D01*
X134305694Y-75093254D01*
X134374141Y-75258499D01*
X134473511Y-75407216D01*
X134599984Y-75533689D01*
X134748701Y-75633059D01*
X134913946Y-75701506D01*
X135089370Y-75736400D01*
X135268230Y-75736400D01*
X135443654Y-75701506D01*
X135608899Y-75633059D01*
X135757616Y-75533689D01*
X135884089Y-75407216D01*
X135983459Y-75258499D01*
X136051906Y-75093254D01*
X136086800Y-74917830D01*
X136086800Y-74738970D01*
X136051906Y-74563546D01*
X135983459Y-74398301D01*
X135884089Y-74249584D01*
X135827505Y-74193000D01*
X148057000Y-74193000D01*
X148057000Y-80653762D01*
X147917430Y-80626000D01*
X147738570Y-80626000D01*
X147563146Y-80660894D01*
X147397901Y-80729341D01*
X147249184Y-80828711D01*
X147122711Y-80955184D01*
X147066000Y-81040058D01*
X147009289Y-80955184D01*
X146882816Y-80828711D01*
X146734099Y-80729341D01*
X146568854Y-80660894D01*
X146393430Y-80626000D01*
X146214570Y-80626000D01*
X146039146Y-80660894D01*
X145873901Y-80729341D01*
X145725184Y-80828711D01*
X145598711Y-80955184D01*
X145499341Y-81103901D01*
X145430894Y-81269146D01*
X145396000Y-81444570D01*
X145396000Y-81623430D01*
X145430894Y-81798854D01*
X145499341Y-81964099D01*
X145598711Y-82112816D01*
X145725184Y-82239289D01*
X145873901Y-82338659D01*
X146039146Y-82407106D01*
X146214570Y-82442000D01*
X146393430Y-82442000D01*
X146568854Y-82407106D01*
X146734099Y-82338659D01*
X146882816Y-82239289D01*
X147009289Y-82112816D01*
X147066000Y-82027942D01*
X147122711Y-82112816D01*
X147178895Y-82169000D01*
X147122711Y-82225184D01*
X147023341Y-82373901D01*
X146954894Y-82539146D01*
X146920000Y-82714570D01*
X146920000Y-82893430D01*
X146954894Y-83068854D01*
X147023341Y-83234099D01*
X147122711Y-83382816D01*
X147249184Y-83509289D01*
X147397901Y-83608659D01*
X147563146Y-83677106D01*
X147738570Y-83712000D01*
X147917430Y-83712000D01*
X148057001Y-83684238D01*
X148057001Y-84463762D01*
X147917430Y-84436000D01*
X147738570Y-84436000D01*
X147563146Y-84470894D01*
X147397901Y-84539341D01*
X147249184Y-84638711D01*
X147122711Y-84765184D01*
X147023341Y-84913901D01*
X146954894Y-85079146D01*
X146920000Y-85254570D01*
X146920000Y-85433430D01*
X146954894Y-85608854D01*
X147023341Y-85774099D01*
X147122711Y-85922816D01*
X147249184Y-86049289D01*
X147397901Y-86148659D01*
X147563146Y-86217106D01*
X147738570Y-86252000D01*
X147917430Y-86252000D01*
X148057001Y-86224238D01*
X148057001Y-87701065D01*
X148040706Y-87619146D01*
X147972259Y-87453901D01*
X147872889Y-87305184D01*
X147746416Y-87178711D01*
X147597699Y-87079341D01*
X147432454Y-87010894D01*
X147257030Y-86976000D01*
X147078170Y-86976000D01*
X146902746Y-87010894D01*
X146737501Y-87079341D01*
X146588784Y-87178711D01*
X146462311Y-87305184D01*
X146362941Y-87453901D01*
X146294494Y-87619146D01*
X146259600Y-87794570D01*
X146259600Y-87973430D01*
X146294494Y-88148854D01*
X146362941Y-88314099D01*
X146462311Y-88462816D01*
X146588784Y-88589289D01*
X146737501Y-88688659D01*
X146902746Y-88757106D01*
X147078170Y-88792000D01*
X147257030Y-88792000D01*
X147432454Y-88757106D01*
X147597699Y-88688659D01*
X147746416Y-88589289D01*
X147872889Y-88462816D01*
X147972259Y-88314099D01*
X148040706Y-88148854D01*
X148057001Y-88066935D01*
X148057001Y-92939000D01*
X140580238Y-92939000D01*
X140608000Y-92799430D01*
X140608000Y-92620570D01*
X140575704Y-92458207D01*
X140612325Y-92494828D01*
X140834746Y-92643444D01*
X141081886Y-92745813D01*
X141344249Y-92798000D01*
X141611751Y-92798000D01*
X141874114Y-92745813D01*
X142121254Y-92643444D01*
X142343675Y-92494828D01*
X142532828Y-92305675D01*
X142681444Y-92083254D01*
X142748000Y-91922574D01*
X142814556Y-92083254D01*
X142963172Y-92305675D01*
X143152325Y-92494828D01*
X143374746Y-92643444D01*
X143621886Y-92745813D01*
X143884249Y-92798000D01*
X144151751Y-92798000D01*
X144414114Y-92745813D01*
X144661254Y-92643444D01*
X144883675Y-92494828D01*
X145072828Y-92305675D01*
X145197543Y-92119025D01*
X145197543Y-92290000D01*
X145207351Y-92389585D01*
X145236399Y-92485343D01*
X145283571Y-92573595D01*
X145347052Y-92650948D01*
X145424405Y-92714429D01*
X145512657Y-92761601D01*
X145608415Y-92790649D01*
X145708000Y-92800457D01*
X147408000Y-92800457D01*
X147507585Y-92790649D01*
X147603343Y-92761601D01*
X147691595Y-92714429D01*
X147768948Y-92650948D01*
X147832429Y-92573595D01*
X147879601Y-92485343D01*
X147908649Y-92389585D01*
X147918457Y-92290000D01*
X147918457Y-90590000D01*
X147908649Y-90490415D01*
X147879601Y-90394657D01*
X147832429Y-90306405D01*
X147768948Y-90229052D01*
X147691595Y-90165571D01*
X147603343Y-90118399D01*
X147507585Y-90089351D01*
X147408000Y-90079543D01*
X145708000Y-90079543D01*
X145608415Y-90089351D01*
X145512657Y-90118399D01*
X145424405Y-90165571D01*
X145347052Y-90229052D01*
X145283571Y-90306405D01*
X145236399Y-90394657D01*
X145207351Y-90490415D01*
X145197543Y-90590000D01*
X145197543Y-90760975D01*
X145072828Y-90574325D01*
X144883675Y-90385172D01*
X144661254Y-90236556D01*
X144414114Y-90134187D01*
X144151751Y-90082000D01*
X143884249Y-90082000D01*
X143621886Y-90134187D01*
X143374746Y-90236556D01*
X143152325Y-90385172D01*
X142963172Y-90574325D01*
X142814556Y-90796746D01*
X142748000Y-90957426D01*
X142681444Y-90796746D01*
X142532828Y-90574325D01*
X142343675Y-90385172D01*
X142121254Y-90236556D01*
X141874114Y-90134187D01*
X141611751Y-90082000D01*
X141344249Y-90082000D01*
X141081886Y-90134187D01*
X140834746Y-90236556D01*
X140612325Y-90385172D01*
X140423172Y-90574325D01*
X140274556Y-90796746D01*
X140172187Y-91043886D01*
X140120000Y-91306249D01*
X140120000Y-91573751D01*
X140172187Y-91836114D01*
X140227942Y-91970718D01*
X140130099Y-91905341D01*
X139964854Y-91836894D01*
X139789430Y-91802000D01*
X139610570Y-91802000D01*
X139435146Y-91836894D01*
X139269901Y-91905341D01*
X139121184Y-92004711D01*
X138994711Y-92131184D01*
X138895341Y-92279901D01*
X138826894Y-92445146D01*
X138792000Y-92620570D01*
X138792000Y-92799430D01*
X138819762Y-92939000D01*
X138675238Y-92939000D01*
X138703000Y-92799430D01*
X138703000Y-92620570D01*
X138668106Y-92445146D01*
X138599659Y-92279901D01*
X138500289Y-92131184D01*
X138373816Y-92004711D01*
X138225099Y-91905341D01*
X138059854Y-91836894D01*
X137884430Y-91802000D01*
X137705570Y-91802000D01*
X137530146Y-91836894D01*
X137364901Y-91905341D01*
X137216184Y-92004711D01*
X137089711Y-92131184D01*
X136990341Y-92279901D01*
X136921894Y-92445146D01*
X136887000Y-92620570D01*
X136887000Y-92799430D01*
X136914762Y-92939000D01*
X121183000Y-92939000D01*
X121183000Y-90388940D01*
X121261301Y-90441259D01*
X121336779Y-90472523D01*
X121331351Y-90490415D01*
X121321543Y-90590000D01*
X121321543Y-92290000D01*
X121331351Y-92389585D01*
X121360399Y-92485343D01*
X121407571Y-92573595D01*
X121471052Y-92650948D01*
X121548405Y-92714429D01*
X121636657Y-92761601D01*
X121732415Y-92790649D01*
X121832000Y-92800457D01*
X123532000Y-92800457D01*
X123631585Y-92790649D01*
X123727343Y-92761601D01*
X123815595Y-92714429D01*
X123892948Y-92650948D01*
X123956429Y-92573595D01*
X124003601Y-92485343D01*
X124032649Y-92389585D01*
X124042457Y-92290000D01*
X124042457Y-92119025D01*
X124167172Y-92305675D01*
X124356325Y-92494828D01*
X124578746Y-92643444D01*
X124825886Y-92745813D01*
X125088249Y-92798000D01*
X125355751Y-92798000D01*
X125618114Y-92745813D01*
X125865254Y-92643444D01*
X126087675Y-92494828D01*
X126276828Y-92305675D01*
X126425444Y-92083254D01*
X126492000Y-91922574D01*
X126558556Y-92083254D01*
X126707172Y-92305675D01*
X126896325Y-92494828D01*
X127118746Y-92643444D01*
X127365886Y-92745813D01*
X127628249Y-92798000D01*
X127895751Y-92798000D01*
X128158114Y-92745813D01*
X128405254Y-92643444D01*
X128627675Y-92494828D01*
X128816828Y-92305675D01*
X128965444Y-92083254D01*
X129067813Y-91836114D01*
X129120000Y-91573751D01*
X129120000Y-91306249D01*
X129067813Y-91043886D01*
X128965444Y-90796746D01*
X128816828Y-90574325D01*
X128627675Y-90385172D01*
X128405254Y-90236556D01*
X128158114Y-90134187D01*
X128143952Y-90131370D01*
X133331000Y-90131370D01*
X133331000Y-90310230D01*
X133365894Y-90485654D01*
X133434341Y-90650899D01*
X133533711Y-90799616D01*
X133660184Y-90926089D01*
X133808901Y-91025459D01*
X133974146Y-91093906D01*
X134149570Y-91128800D01*
X134328430Y-91128800D01*
X134503854Y-91093906D01*
X134669099Y-91025459D01*
X134817816Y-90926089D01*
X134944289Y-90799616D01*
X135043659Y-90650899D01*
X135112106Y-90485654D01*
X135147000Y-90310230D01*
X135147000Y-90131370D01*
X135112106Y-89955946D01*
X135043659Y-89790701D01*
X134944289Y-89641984D01*
X134874875Y-89572570D01*
X136760000Y-89572570D01*
X136760000Y-89751430D01*
X136794894Y-89926854D01*
X136863341Y-90092099D01*
X136962711Y-90240816D01*
X137089184Y-90367289D01*
X137237901Y-90466659D01*
X137403146Y-90535106D01*
X137578570Y-90570000D01*
X137757430Y-90570000D01*
X137932854Y-90535106D01*
X138098099Y-90466659D01*
X138246816Y-90367289D01*
X138373289Y-90240816D01*
X138472659Y-90092099D01*
X138541106Y-89926854D01*
X138576000Y-89751430D01*
X138576000Y-89572570D01*
X138541106Y-89397146D01*
X138472659Y-89231901D01*
X138373289Y-89083184D01*
X138246816Y-88956711D01*
X138098099Y-88857341D01*
X137932854Y-88788894D01*
X137757430Y-88754000D01*
X137578570Y-88754000D01*
X137403146Y-88788894D01*
X137237901Y-88857341D01*
X137089184Y-88956711D01*
X136962711Y-89083184D01*
X136863341Y-89231901D01*
X136794894Y-89397146D01*
X136760000Y-89572570D01*
X134874875Y-89572570D01*
X134817816Y-89515511D01*
X134669099Y-89416141D01*
X134503854Y-89347694D01*
X134328430Y-89312800D01*
X134149570Y-89312800D01*
X133974146Y-89347694D01*
X133808901Y-89416141D01*
X133660184Y-89515511D01*
X133533711Y-89641984D01*
X133434341Y-89790701D01*
X133365894Y-89955946D01*
X133331000Y-90131370D01*
X128143952Y-90131370D01*
X127895751Y-90082000D01*
X127628249Y-90082000D01*
X127365886Y-90134187D01*
X127264429Y-90176212D01*
X127298400Y-90005430D01*
X127298400Y-89826570D01*
X127263506Y-89651146D01*
X127195059Y-89485901D01*
X127095689Y-89337184D01*
X126969216Y-89210711D01*
X126820499Y-89111341D01*
X126655254Y-89042894D01*
X126479830Y-89008000D01*
X126300970Y-89008000D01*
X126125546Y-89042894D01*
X125960301Y-89111341D01*
X125811584Y-89210711D01*
X125685111Y-89337184D01*
X125585741Y-89485901D01*
X125520400Y-89643647D01*
X125520400Y-89547170D01*
X125485506Y-89371746D01*
X125417059Y-89206501D01*
X125317689Y-89057784D01*
X125191216Y-88931311D01*
X125042499Y-88831941D01*
X124877254Y-88763494D01*
X124701830Y-88728600D01*
X124522970Y-88728600D01*
X124347546Y-88763494D01*
X124182301Y-88831941D01*
X124033584Y-88931311D01*
X123907111Y-89057784D01*
X123850400Y-89142658D01*
X123793689Y-89057784D01*
X123667216Y-88931311D01*
X123518499Y-88831941D01*
X123416998Y-88789898D01*
X123581854Y-88757106D01*
X123747099Y-88688659D01*
X123895816Y-88589289D01*
X124022289Y-88462816D01*
X124121659Y-88314099D01*
X124190106Y-88148854D01*
X124225000Y-87973430D01*
X124225000Y-87794570D01*
X124190106Y-87619146D01*
X124121659Y-87453901D01*
X124022289Y-87305184D01*
X123895816Y-87178711D01*
X123747099Y-87079341D01*
X123581854Y-87010894D01*
X123406430Y-86976000D01*
X123227570Y-86976000D01*
X123052146Y-87010894D01*
X122886901Y-87079341D01*
X122738184Y-87178711D01*
X122611711Y-87305184D01*
X122512341Y-87453901D01*
X122443894Y-87619146D01*
X122409000Y-87794570D01*
X122409000Y-87973430D01*
X122443894Y-88148854D01*
X122512341Y-88314099D01*
X122611711Y-88462816D01*
X122738184Y-88589289D01*
X122886901Y-88688659D01*
X122988402Y-88730702D01*
X122823546Y-88763494D01*
X122658301Y-88831941D01*
X122509584Y-88931311D01*
X122389900Y-89050995D01*
X122270216Y-88931311D01*
X122121499Y-88831941D01*
X121956254Y-88763494D01*
X121780830Y-88728600D01*
X121601970Y-88728600D01*
X121426546Y-88763494D01*
X121261301Y-88831941D01*
X121183000Y-88884260D01*
X121183000Y-86464915D01*
X121197946Y-86471106D01*
X121373370Y-86506000D01*
X121552230Y-86506000D01*
X121586566Y-86499170D01*
X126828600Y-86499170D01*
X126828600Y-86678030D01*
X126863494Y-86853454D01*
X126931941Y-87018699D01*
X127031311Y-87167416D01*
X127157784Y-87293889D01*
X127306501Y-87393259D01*
X127471746Y-87461706D01*
X127647170Y-87496600D01*
X127826030Y-87496600D01*
X128001454Y-87461706D01*
X128166699Y-87393259D01*
X128315416Y-87293889D01*
X128441889Y-87167416D01*
X128541259Y-87018699D01*
X128609706Y-86853454D01*
X128644600Y-86678030D01*
X128644600Y-86677600D01*
X128788854Y-86648906D01*
X128954099Y-86580459D01*
X129017800Y-86537895D01*
X129012511Y-86543184D01*
X128913141Y-86691901D01*
X128844694Y-86857146D01*
X128809800Y-87032570D01*
X128809800Y-87211430D01*
X128844694Y-87386854D01*
X128913141Y-87552099D01*
X129012511Y-87700816D01*
X129138984Y-87827289D01*
X129287701Y-87926659D01*
X129452946Y-87995106D01*
X129628370Y-88030000D01*
X129807230Y-88030000D01*
X129982654Y-87995106D01*
X130147899Y-87926659D01*
X130296616Y-87827289D01*
X130423089Y-87700816D01*
X130522459Y-87552099D01*
X130590906Y-87386854D01*
X130625800Y-87211430D01*
X130625800Y-87032570D01*
X130620748Y-87007170D01*
X130664000Y-87007170D01*
X130664000Y-87186030D01*
X130698894Y-87361454D01*
X130767341Y-87526699D01*
X130866711Y-87675416D01*
X130993184Y-87801889D01*
X131141901Y-87901259D01*
X131307146Y-87969706D01*
X131482570Y-88004600D01*
X131661430Y-88004600D01*
X131836854Y-87969706D01*
X132002099Y-87901259D01*
X132067300Y-87857693D01*
X132132501Y-87901259D01*
X132297746Y-87969706D01*
X132473170Y-88004600D01*
X132652030Y-88004600D01*
X132827454Y-87969706D01*
X132992699Y-87901259D01*
X133141416Y-87801889D01*
X133267889Y-87675416D01*
X133357990Y-87540570D01*
X135998000Y-87540570D01*
X135998000Y-87719430D01*
X136032894Y-87894854D01*
X136101341Y-88060099D01*
X136200711Y-88208816D01*
X136327184Y-88335289D01*
X136475901Y-88434659D01*
X136641146Y-88503106D01*
X136816570Y-88538000D01*
X136995430Y-88538000D01*
X137170854Y-88503106D01*
X137336099Y-88434659D01*
X137484816Y-88335289D01*
X137611289Y-88208816D01*
X137710659Y-88060099D01*
X137779106Y-87894854D01*
X137814000Y-87719430D01*
X137814000Y-87540570D01*
X137779106Y-87365146D01*
X137710659Y-87199901D01*
X137611289Y-87051184D01*
X137529705Y-86969600D01*
X137636689Y-86862616D01*
X137736059Y-86713899D01*
X137804506Y-86548654D01*
X137839400Y-86373230D01*
X137839400Y-86245170D01*
X138385600Y-86245170D01*
X138385600Y-86424030D01*
X138420494Y-86599454D01*
X138488941Y-86764699D01*
X138588311Y-86913416D01*
X138714784Y-87039889D01*
X138863501Y-87139259D01*
X139028746Y-87207706D01*
X139204170Y-87242600D01*
X139383030Y-87242600D01*
X139558454Y-87207706D01*
X139723699Y-87139259D01*
X139872416Y-87039889D01*
X139998889Y-86913416D01*
X140098259Y-86764699D01*
X140166706Y-86599454D01*
X140201600Y-86424030D01*
X140201600Y-86245170D01*
X140166706Y-86069746D01*
X140098259Y-85904501D01*
X139998889Y-85755784D01*
X139917400Y-85674295D01*
X139981101Y-85716859D01*
X140146346Y-85785306D01*
X140321770Y-85820200D01*
X140500630Y-85820200D01*
X140612245Y-85797998D01*
X140604894Y-85815746D01*
X140570000Y-85991170D01*
X140570000Y-86170030D01*
X140604894Y-86345454D01*
X140673341Y-86510699D01*
X140772711Y-86659416D01*
X140899184Y-86785889D01*
X140943601Y-86815567D01*
X140884294Y-86958746D01*
X140849400Y-87134170D01*
X140849400Y-87313030D01*
X140884294Y-87488454D01*
X140952741Y-87653699D01*
X141052111Y-87802416D01*
X141178584Y-87928889D01*
X141327301Y-88028259D01*
X141492546Y-88096706D01*
X141667970Y-88131600D01*
X141846830Y-88131600D01*
X142022254Y-88096706D01*
X142187499Y-88028259D01*
X142309156Y-87946970D01*
X144380000Y-87946970D01*
X144380000Y-88125830D01*
X144414894Y-88301254D01*
X144483341Y-88466499D01*
X144582711Y-88615216D01*
X144709184Y-88741689D01*
X144857901Y-88841059D01*
X145023146Y-88909506D01*
X145198570Y-88944400D01*
X145377430Y-88944400D01*
X145552854Y-88909506D01*
X145718099Y-88841059D01*
X145866816Y-88741689D01*
X145993289Y-88615216D01*
X146092659Y-88466499D01*
X146161106Y-88301254D01*
X146196000Y-88125830D01*
X146196000Y-87946970D01*
X146161106Y-87771546D01*
X146092659Y-87606301D01*
X145993289Y-87457584D01*
X145866816Y-87331111D01*
X145718099Y-87231741D01*
X145552854Y-87163294D01*
X145377430Y-87128400D01*
X145198570Y-87128400D01*
X145023146Y-87163294D01*
X144857901Y-87231741D01*
X144709184Y-87331111D01*
X144582711Y-87457584D01*
X144483341Y-87606301D01*
X144414894Y-87771546D01*
X144380000Y-87946970D01*
X142309156Y-87946970D01*
X142336216Y-87928889D01*
X142462689Y-87802416D01*
X142562059Y-87653699D01*
X142630506Y-87488454D01*
X142665400Y-87313030D01*
X142665400Y-87134170D01*
X142630506Y-86958746D01*
X142562059Y-86793501D01*
X142462689Y-86644784D01*
X142336216Y-86518311D01*
X142291799Y-86488633D01*
X142351106Y-86345454D01*
X142386000Y-86170030D01*
X142386000Y-85991170D01*
X142351106Y-85815746D01*
X142282659Y-85650501D01*
X142183289Y-85501784D01*
X142056816Y-85375311D01*
X141908099Y-85275941D01*
X141742854Y-85207494D01*
X141567430Y-85172600D01*
X141388570Y-85172600D01*
X141276955Y-85194802D01*
X141284306Y-85177054D01*
X141319200Y-85001630D01*
X141319200Y-84822770D01*
X141284306Y-84647346D01*
X141215859Y-84482101D01*
X141116489Y-84333384D01*
X140990016Y-84206911D01*
X140841299Y-84107541D01*
X140676054Y-84039094D01*
X140500630Y-84004200D01*
X140321770Y-84004200D01*
X140146346Y-84039094D01*
X139981101Y-84107541D01*
X139832384Y-84206911D01*
X139705911Y-84333384D01*
X139606541Y-84482101D01*
X139538094Y-84647346D01*
X139503200Y-84822770D01*
X139503200Y-85001630D01*
X139538094Y-85177054D01*
X139606541Y-85342299D01*
X139705911Y-85491016D01*
X139787400Y-85572505D01*
X139723699Y-85529941D01*
X139558454Y-85461494D01*
X139383030Y-85426600D01*
X139204170Y-85426600D01*
X139028746Y-85461494D01*
X138863501Y-85529941D01*
X138714784Y-85629311D01*
X138588311Y-85755784D01*
X138488941Y-85904501D01*
X138420494Y-86069746D01*
X138385600Y-86245170D01*
X137839400Y-86245170D01*
X137839400Y-86194370D01*
X137804506Y-86018946D01*
X137736059Y-85853701D01*
X137636689Y-85704984D01*
X137510216Y-85578511D01*
X137361499Y-85479141D01*
X137196254Y-85410694D01*
X137020830Y-85375800D01*
X136841970Y-85375800D01*
X136666546Y-85410694D01*
X136501301Y-85479141D01*
X136352584Y-85578511D01*
X136226111Y-85704984D01*
X136126741Y-85853701D01*
X136058294Y-86018946D01*
X136023400Y-86194370D01*
X136023400Y-86373230D01*
X136058294Y-86548654D01*
X136126741Y-86713899D01*
X136226111Y-86862616D01*
X136307695Y-86944200D01*
X136200711Y-87051184D01*
X136101341Y-87199901D01*
X136032894Y-87365146D01*
X135998000Y-87540570D01*
X133357990Y-87540570D01*
X133367259Y-87526699D01*
X133435706Y-87361454D01*
X133470600Y-87186030D01*
X133470600Y-87007170D01*
X133435706Y-86831746D01*
X133367259Y-86666501D01*
X133267889Y-86517784D01*
X133141416Y-86391311D01*
X132992699Y-86291941D01*
X132827454Y-86223494D01*
X132652030Y-86188600D01*
X132473170Y-86188600D01*
X132297746Y-86223494D01*
X132132501Y-86291941D01*
X132067300Y-86335507D01*
X132002099Y-86291941D01*
X131836854Y-86223494D01*
X131661430Y-86188600D01*
X131482570Y-86188600D01*
X131307146Y-86223494D01*
X131141901Y-86291941D01*
X130993184Y-86391311D01*
X130866711Y-86517784D01*
X130767341Y-86666501D01*
X130698894Y-86831746D01*
X130664000Y-87007170D01*
X130620748Y-87007170D01*
X130590906Y-86857146D01*
X130522459Y-86691901D01*
X130423089Y-86543184D01*
X130296616Y-86416711D01*
X130147899Y-86317341D01*
X129982654Y-86248894D01*
X129807230Y-86214000D01*
X129628370Y-86214000D01*
X129452946Y-86248894D01*
X129287701Y-86317341D01*
X129224000Y-86359905D01*
X129229289Y-86354616D01*
X129328659Y-86205899D01*
X129397106Y-86040654D01*
X129432000Y-85865230D01*
X129432000Y-85686370D01*
X129397106Y-85510946D01*
X129328659Y-85345701D01*
X129229289Y-85196984D01*
X129102816Y-85070511D01*
X128954099Y-84971141D01*
X128788854Y-84902694D01*
X128613430Y-84867800D01*
X128434570Y-84867800D01*
X128259146Y-84902694D01*
X128093901Y-84971141D01*
X127945184Y-85070511D01*
X127818711Y-85196984D01*
X127719341Y-85345701D01*
X127650894Y-85510946D01*
X127616000Y-85686370D01*
X127616000Y-85686800D01*
X127471746Y-85715494D01*
X127306501Y-85783941D01*
X127157784Y-85883311D01*
X127031311Y-86009784D01*
X126931941Y-86158501D01*
X126863494Y-86323746D01*
X126828600Y-86499170D01*
X121586566Y-86499170D01*
X121727654Y-86471106D01*
X121892899Y-86402659D01*
X122041616Y-86303289D01*
X122168089Y-86176816D01*
X122267459Y-86028099D01*
X122335906Y-85862854D01*
X122370800Y-85687430D01*
X122370800Y-85508570D01*
X122335906Y-85333146D01*
X122267459Y-85167901D01*
X122168089Y-85019184D01*
X122041616Y-84892711D01*
X121892899Y-84793341D01*
X121727654Y-84724894D01*
X121552230Y-84690000D01*
X121373370Y-84690000D01*
X121197946Y-84724894D01*
X121183000Y-84731085D01*
X121183000Y-83444139D01*
X121199294Y-83526054D01*
X121267741Y-83691299D01*
X121367111Y-83840016D01*
X121493584Y-83966489D01*
X121642301Y-84065859D01*
X121807546Y-84134306D01*
X121982970Y-84169200D01*
X122161830Y-84169200D01*
X122337254Y-84134306D01*
X122502499Y-84065859D01*
X122651216Y-83966489D01*
X122777689Y-83840016D01*
X122877059Y-83691299D01*
X122945506Y-83526054D01*
X122961400Y-83446149D01*
X122977294Y-83526054D01*
X123045741Y-83691299D01*
X123145111Y-83840016D01*
X123271584Y-83966489D01*
X123420301Y-84065859D01*
X123585546Y-84134306D01*
X123760970Y-84169200D01*
X123939830Y-84169200D01*
X124115254Y-84134306D01*
X124280499Y-84065859D01*
X124429216Y-83966489D01*
X124555689Y-83840016D01*
X124655059Y-83691299D01*
X124723506Y-83526054D01*
X124758400Y-83350630D01*
X124758400Y-83171770D01*
X124723506Y-82996346D01*
X124655059Y-82831101D01*
X124555689Y-82682384D01*
X124429216Y-82555911D01*
X124280499Y-82456541D01*
X124115254Y-82388094D01*
X123939830Y-82353200D01*
X123760970Y-82353200D01*
X123585546Y-82388094D01*
X123420301Y-82456541D01*
X123271584Y-82555911D01*
X123145111Y-82682384D01*
X123045741Y-82831101D01*
X122977294Y-82996346D01*
X122961400Y-83076251D01*
X122945506Y-82996346D01*
X122877059Y-82831101D01*
X122777689Y-82682384D01*
X122651216Y-82555911D01*
X122502499Y-82456541D01*
X122337254Y-82388094D01*
X122334080Y-82387463D01*
X122335906Y-82383054D01*
X122354408Y-82290040D01*
X122391746Y-82305506D01*
X122567170Y-82340400D01*
X122746030Y-82340400D01*
X122921454Y-82305506D01*
X123086699Y-82237059D01*
X123235416Y-82137689D01*
X123361889Y-82011216D01*
X123461259Y-81862499D01*
X123529706Y-81697254D01*
X123564600Y-81521830D01*
X123564600Y-81444570D01*
X127133400Y-81444570D01*
X127133400Y-81623430D01*
X127168294Y-81798854D01*
X127236741Y-81964099D01*
X127314251Y-82080100D01*
X127236741Y-82196101D01*
X127168294Y-82361346D01*
X127133400Y-82536770D01*
X127133400Y-82715630D01*
X127168294Y-82891054D01*
X127236741Y-83056299D01*
X127336111Y-83205016D01*
X127354195Y-83223100D01*
X127336111Y-83241184D01*
X127236741Y-83389901D01*
X127168294Y-83555146D01*
X127133400Y-83730570D01*
X127133400Y-83909430D01*
X127168294Y-84084854D01*
X127236741Y-84250099D01*
X127336111Y-84398816D01*
X127462584Y-84525289D01*
X127611301Y-84624659D01*
X127776546Y-84693106D01*
X127951970Y-84728000D01*
X128130830Y-84728000D01*
X128306254Y-84693106D01*
X128471499Y-84624659D01*
X128569115Y-84559434D01*
X128631511Y-84652816D01*
X128757984Y-84779289D01*
X128906701Y-84878659D01*
X129071946Y-84947106D01*
X129247370Y-84982000D01*
X129426230Y-84982000D01*
X129601654Y-84947106D01*
X129766899Y-84878659D01*
X129915616Y-84779289D01*
X130042089Y-84652816D01*
X130141459Y-84504099D01*
X130209906Y-84338854D01*
X130244800Y-84163430D01*
X130244800Y-83984570D01*
X132264200Y-83984570D01*
X132264200Y-84163430D01*
X132299094Y-84338854D01*
X132367541Y-84504099D01*
X132466911Y-84652816D01*
X132593384Y-84779289D01*
X132742101Y-84878659D01*
X132907346Y-84947106D01*
X133082770Y-84982000D01*
X133261630Y-84982000D01*
X133437054Y-84947106D01*
X133602299Y-84878659D01*
X133751016Y-84779289D01*
X133877489Y-84652816D01*
X133976859Y-84504099D01*
X134045306Y-84338854D01*
X134080200Y-84163430D01*
X134080200Y-83984570D01*
X134045306Y-83809146D01*
X133976859Y-83643901D01*
X133877489Y-83495184D01*
X133751016Y-83368711D01*
X133602299Y-83269341D01*
X133437054Y-83200894D01*
X133261630Y-83166000D01*
X133082770Y-83166000D01*
X132907346Y-83200894D01*
X132742101Y-83269341D01*
X132593384Y-83368711D01*
X132466911Y-83495184D01*
X132367541Y-83643901D01*
X132299094Y-83809146D01*
X132264200Y-83984570D01*
X130244800Y-83984570D01*
X130209906Y-83809146D01*
X130141459Y-83643901D01*
X130042089Y-83495184D01*
X129915616Y-83368711D01*
X129766899Y-83269341D01*
X129601654Y-83200894D01*
X129426230Y-83166000D01*
X129247370Y-83166000D01*
X129071946Y-83200894D01*
X128906701Y-83269341D01*
X128809085Y-83334566D01*
X128746689Y-83241184D01*
X128728605Y-83223100D01*
X128746689Y-83205016D01*
X128846059Y-83056299D01*
X128914506Y-82891054D01*
X128949400Y-82715630D01*
X128949400Y-82536770D01*
X128914506Y-82361346D01*
X128846059Y-82196101D01*
X128768549Y-82080100D01*
X128846059Y-81964099D01*
X128914506Y-81798854D01*
X128949400Y-81623430D01*
X128949400Y-81444570D01*
X129140000Y-81444570D01*
X129140000Y-81623430D01*
X129174894Y-81798854D01*
X129243341Y-81964099D01*
X129342711Y-82112816D01*
X129469184Y-82239289D01*
X129617901Y-82338659D01*
X129783146Y-82407106D01*
X129958570Y-82442000D01*
X130137430Y-82442000D01*
X130312854Y-82407106D01*
X130478099Y-82338659D01*
X130626816Y-82239289D01*
X130753289Y-82112816D01*
X130852659Y-81964099D01*
X130921106Y-81798854D01*
X130956000Y-81623430D01*
X130956000Y-81444570D01*
X131908600Y-81444570D01*
X131908600Y-81623430D01*
X131943494Y-81798854D01*
X132011941Y-81964099D01*
X132111311Y-82112816D01*
X132237784Y-82239289D01*
X132386501Y-82338659D01*
X132551746Y-82407106D01*
X132727170Y-82442000D01*
X132906030Y-82442000D01*
X133081454Y-82407106D01*
X133246699Y-82338659D01*
X133395416Y-82239289D01*
X133521889Y-82112816D01*
X133621259Y-81964099D01*
X133689706Y-81798854D01*
X133724600Y-81623430D01*
X133724600Y-81444570D01*
X133694286Y-81292170D01*
X140874800Y-81292170D01*
X140874800Y-81471030D01*
X140909694Y-81646454D01*
X140978141Y-81811699D01*
X141077511Y-81960416D01*
X141203984Y-82086889D01*
X141352701Y-82186259D01*
X141517946Y-82254706D01*
X141693370Y-82289600D01*
X141872230Y-82289600D01*
X142047654Y-82254706D01*
X142212899Y-82186259D01*
X142361616Y-82086889D01*
X142488089Y-81960416D01*
X142587459Y-81811699D01*
X142655906Y-81646454D01*
X142690800Y-81471030D01*
X142690800Y-81292170D01*
X142655906Y-81116746D01*
X142587459Y-80951501D01*
X142488089Y-80802784D01*
X142361616Y-80676311D01*
X142212899Y-80576941D01*
X142047654Y-80508494D01*
X141872230Y-80473600D01*
X141693370Y-80473600D01*
X141517946Y-80508494D01*
X141352701Y-80576941D01*
X141203984Y-80676311D01*
X141077511Y-80802784D01*
X140978141Y-80951501D01*
X140909694Y-81116746D01*
X140874800Y-81292170D01*
X133694286Y-81292170D01*
X133689706Y-81269146D01*
X133621259Y-81103901D01*
X133521889Y-80955184D01*
X133395416Y-80828711D01*
X133246699Y-80729341D01*
X133081454Y-80660894D01*
X132906030Y-80626000D01*
X132727170Y-80626000D01*
X132551746Y-80660894D01*
X132386501Y-80729341D01*
X132237784Y-80828711D01*
X132111311Y-80955184D01*
X132011941Y-81103901D01*
X131943494Y-81269146D01*
X131908600Y-81444570D01*
X130956000Y-81444570D01*
X130921106Y-81269146D01*
X130852659Y-81103901D01*
X130753289Y-80955184D01*
X130626816Y-80828711D01*
X130478099Y-80729341D01*
X130312854Y-80660894D01*
X130137430Y-80626000D01*
X129958570Y-80626000D01*
X129783146Y-80660894D01*
X129617901Y-80729341D01*
X129469184Y-80828711D01*
X129342711Y-80955184D01*
X129243341Y-81103901D01*
X129174894Y-81269146D01*
X129140000Y-81444570D01*
X128949400Y-81444570D01*
X128914506Y-81269146D01*
X128846059Y-81103901D01*
X128746689Y-80955184D01*
X128620216Y-80828711D01*
X128471499Y-80729341D01*
X128306254Y-80660894D01*
X128130830Y-80626000D01*
X127951970Y-80626000D01*
X127776546Y-80660894D01*
X127611301Y-80729341D01*
X127462584Y-80828711D01*
X127336111Y-80955184D01*
X127236741Y-81103901D01*
X127168294Y-81269146D01*
X127133400Y-81444570D01*
X123564600Y-81444570D01*
X123564600Y-81342970D01*
X123529706Y-81167546D01*
X123461259Y-81002301D01*
X123361889Y-80853584D01*
X123235416Y-80727111D01*
X123086699Y-80627741D01*
X122921454Y-80559294D01*
X122746030Y-80524400D01*
X122567170Y-80524400D01*
X122391746Y-80559294D01*
X122226501Y-80627741D01*
X122077784Y-80727111D01*
X121951311Y-80853584D01*
X121851941Y-81002301D01*
X121783494Y-81167546D01*
X121764992Y-81260560D01*
X121727654Y-81245094D01*
X121552230Y-81210200D01*
X121373370Y-81210200D01*
X121197946Y-81245094D01*
X121183000Y-81251285D01*
X121183000Y-77380570D01*
X123044000Y-77380570D01*
X123044000Y-77559430D01*
X123078894Y-77734854D01*
X123147341Y-77900099D01*
X123246711Y-78048816D01*
X123373184Y-78175289D01*
X123521901Y-78274659D01*
X123687146Y-78343106D01*
X123862570Y-78378000D01*
X124041430Y-78378000D01*
X124216854Y-78343106D01*
X124382099Y-78274659D01*
X124530816Y-78175289D01*
X124657289Y-78048816D01*
X124756659Y-77900099D01*
X124825106Y-77734854D01*
X124860000Y-77559430D01*
X124860000Y-77380570D01*
X132950000Y-77380570D01*
X132950000Y-77559430D01*
X132984894Y-77734854D01*
X133053341Y-77900099D01*
X133152711Y-78048816D01*
X133279184Y-78175289D01*
X133427901Y-78274659D01*
X133593146Y-78343106D01*
X133768570Y-78378000D01*
X133947430Y-78378000D01*
X134122854Y-78343106D01*
X134288099Y-78274659D01*
X134436816Y-78175289D01*
X134563289Y-78048816D01*
X134620000Y-77963942D01*
X134676711Y-78048816D01*
X134803184Y-78175289D01*
X134951901Y-78274659D01*
X135117146Y-78343106D01*
X135292570Y-78378000D01*
X135471430Y-78378000D01*
X135646854Y-78343106D01*
X135812099Y-78274659D01*
X135960816Y-78175289D01*
X136087289Y-78048816D01*
X136186659Y-77900099D01*
X136255106Y-77734854D01*
X136290000Y-77559430D01*
X136290000Y-77380570D01*
X136255106Y-77205146D01*
X136186659Y-77039901D01*
X136087289Y-76891184D01*
X135960816Y-76764711D01*
X135812099Y-76665341D01*
X135646854Y-76596894D01*
X135471430Y-76562000D01*
X135292570Y-76562000D01*
X135117146Y-76596894D01*
X134951901Y-76665341D01*
X134803184Y-76764711D01*
X134676711Y-76891184D01*
X134620000Y-76976058D01*
X134563289Y-76891184D01*
X134436816Y-76764711D01*
X134288099Y-76665341D01*
X134122854Y-76596894D01*
X133947430Y-76562000D01*
X133768570Y-76562000D01*
X133593146Y-76596894D01*
X133427901Y-76665341D01*
X133279184Y-76764711D01*
X133152711Y-76891184D01*
X133053341Y-77039901D01*
X132984894Y-77205146D01*
X132950000Y-77380570D01*
X124860000Y-77380570D01*
X124825106Y-77205146D01*
X124756659Y-77039901D01*
X124657289Y-76891184D01*
X124530816Y-76764711D01*
X124382099Y-76665341D01*
X124216854Y-76596894D01*
X124041430Y-76562000D01*
X123862570Y-76562000D01*
X123687146Y-76596894D01*
X123521901Y-76665341D01*
X123373184Y-76764711D01*
X123246711Y-76891184D01*
X123147341Y-77039901D01*
X123078894Y-77205146D01*
X123044000Y-77380570D01*
X121183000Y-77380570D01*
X121183000Y-74193000D01*
X131776432Y-74193000D01*
X131707141Y-74296701D01*
G37*
X131707141Y-74296701D02*
X131638694Y-74461946D01*
X131603800Y-74637370D01*
X131603800Y-74816230D01*
X131638694Y-74991654D01*
X131707141Y-75156899D01*
X131806511Y-75305616D01*
X131932984Y-75432089D01*
X132081701Y-75531459D01*
X132246946Y-75599906D01*
X132422370Y-75634800D01*
X132601230Y-75634800D01*
X132776654Y-75599906D01*
X132941899Y-75531459D01*
X133090616Y-75432089D01*
X133217089Y-75305616D01*
X133316459Y-75156899D01*
X133384906Y-74991654D01*
X133419800Y-74816230D01*
X133419800Y-74637370D01*
X133384906Y-74461946D01*
X133316459Y-74296701D01*
X133247168Y-74193000D01*
X134530095Y-74193000D01*
X134473511Y-74249584D01*
X134374141Y-74398301D01*
X134305694Y-74563546D01*
X134270800Y-74738970D01*
X134270800Y-74917830D01*
X134305694Y-75093254D01*
X134374141Y-75258499D01*
X134473511Y-75407216D01*
X134599984Y-75533689D01*
X134748701Y-75633059D01*
X134913946Y-75701506D01*
X135089370Y-75736400D01*
X135268230Y-75736400D01*
X135443654Y-75701506D01*
X135608899Y-75633059D01*
X135757616Y-75533689D01*
X135884089Y-75407216D01*
X135983459Y-75258499D01*
X136051906Y-75093254D01*
X136086800Y-74917830D01*
X136086800Y-74738970D01*
X136051906Y-74563546D01*
X135983459Y-74398301D01*
X135884089Y-74249584D01*
X135827505Y-74193000D01*
X148057000Y-74193000D01*
X148057000Y-80653762D01*
X147917430Y-80626000D01*
X147738570Y-80626000D01*
X147563146Y-80660894D01*
X147397901Y-80729341D01*
X147249184Y-80828711D01*
X147122711Y-80955184D01*
X147066000Y-81040058D01*
X147009289Y-80955184D01*
X146882816Y-80828711D01*
X146734099Y-80729341D01*
X146568854Y-80660894D01*
X146393430Y-80626000D01*
X146214570Y-80626000D01*
X146039146Y-80660894D01*
X145873901Y-80729341D01*
X145725184Y-80828711D01*
X145598711Y-80955184D01*
X145499341Y-81103901D01*
X145430894Y-81269146D01*
X145396000Y-81444570D01*
X145396000Y-81623430D01*
X145430894Y-81798854D01*
X145499341Y-81964099D01*
X145598711Y-82112816D01*
X145725184Y-82239289D01*
X145873901Y-82338659D01*
X146039146Y-82407106D01*
X146214570Y-82442000D01*
X146393430Y-82442000D01*
X146568854Y-82407106D01*
X146734099Y-82338659D01*
X146882816Y-82239289D01*
X147009289Y-82112816D01*
X147066000Y-82027942D01*
X147122711Y-82112816D01*
X147178895Y-82169000D01*
X147122711Y-82225184D01*
X147023341Y-82373901D01*
X146954894Y-82539146D01*
X146920000Y-82714570D01*
X146920000Y-82893430D01*
X146954894Y-83068854D01*
X147023341Y-83234099D01*
X147122711Y-83382816D01*
X147249184Y-83509289D01*
X147397901Y-83608659D01*
X147563146Y-83677106D01*
X147738570Y-83712000D01*
X147917430Y-83712000D01*
X148057001Y-83684238D01*
X148057001Y-84463762D01*
X147917430Y-84436000D01*
X147738570Y-84436000D01*
X147563146Y-84470894D01*
X147397901Y-84539341D01*
X147249184Y-84638711D01*
X147122711Y-84765184D01*
X147023341Y-84913901D01*
X146954894Y-85079146D01*
X146920000Y-85254570D01*
X146920000Y-85433430D01*
X146954894Y-85608854D01*
X147023341Y-85774099D01*
X147122711Y-85922816D01*
X147249184Y-86049289D01*
X147397901Y-86148659D01*
X147563146Y-86217106D01*
X147738570Y-86252000D01*
X147917430Y-86252000D01*
X148057001Y-86224238D01*
X148057001Y-87701065D01*
X148040706Y-87619146D01*
X147972259Y-87453901D01*
X147872889Y-87305184D01*
X147746416Y-87178711D01*
X147597699Y-87079341D01*
X147432454Y-87010894D01*
X147257030Y-86976000D01*
X147078170Y-86976000D01*
X146902746Y-87010894D01*
X146737501Y-87079341D01*
X146588784Y-87178711D01*
X146462311Y-87305184D01*
X146362941Y-87453901D01*
X146294494Y-87619146D01*
X146259600Y-87794570D01*
X146259600Y-87973430D01*
X146294494Y-88148854D01*
X146362941Y-88314099D01*
X146462311Y-88462816D01*
X146588784Y-88589289D01*
X146737501Y-88688659D01*
X146902746Y-88757106D01*
X147078170Y-88792000D01*
X147257030Y-88792000D01*
X147432454Y-88757106D01*
X147597699Y-88688659D01*
X147746416Y-88589289D01*
X147872889Y-88462816D01*
X147972259Y-88314099D01*
X148040706Y-88148854D01*
X148057001Y-88066935D01*
X148057001Y-92939000D01*
X140580238Y-92939000D01*
X140608000Y-92799430D01*
X140608000Y-92620570D01*
X140575704Y-92458207D01*
X140612325Y-92494828D01*
X140834746Y-92643444D01*
X141081886Y-92745813D01*
X141344249Y-92798000D01*
X141611751Y-92798000D01*
X141874114Y-92745813D01*
X142121254Y-92643444D01*
X142343675Y-92494828D01*
X142532828Y-92305675D01*
X142681444Y-92083254D01*
X142748000Y-91922574D01*
X142814556Y-92083254D01*
X142963172Y-92305675D01*
X143152325Y-92494828D01*
X143374746Y-92643444D01*
X143621886Y-92745813D01*
X143884249Y-92798000D01*
X144151751Y-92798000D01*
X144414114Y-92745813D01*
X144661254Y-92643444D01*
X144883675Y-92494828D01*
X145072828Y-92305675D01*
X145197543Y-92119025D01*
X145197543Y-92290000D01*
X145207351Y-92389585D01*
X145236399Y-92485343D01*
X145283571Y-92573595D01*
X145347052Y-92650948D01*
X145424405Y-92714429D01*
X145512657Y-92761601D01*
X145608415Y-92790649D01*
X145708000Y-92800457D01*
X147408000Y-92800457D01*
X147507585Y-92790649D01*
X147603343Y-92761601D01*
X147691595Y-92714429D01*
X147768948Y-92650948D01*
X147832429Y-92573595D01*
X147879601Y-92485343D01*
X147908649Y-92389585D01*
X147918457Y-92290000D01*
X147918457Y-90590000D01*
X147908649Y-90490415D01*
X147879601Y-90394657D01*
X147832429Y-90306405D01*
X147768948Y-90229052D01*
X147691595Y-90165571D01*
X147603343Y-90118399D01*
X147507585Y-90089351D01*
X147408000Y-90079543D01*
X145708000Y-90079543D01*
X145608415Y-90089351D01*
X145512657Y-90118399D01*
X145424405Y-90165571D01*
X145347052Y-90229052D01*
X145283571Y-90306405D01*
X145236399Y-90394657D01*
X145207351Y-90490415D01*
X145197543Y-90590000D01*
X145197543Y-90760975D01*
X145072828Y-90574325D01*
X144883675Y-90385172D01*
X144661254Y-90236556D01*
X144414114Y-90134187D01*
X144151751Y-90082000D01*
X143884249Y-90082000D01*
X143621886Y-90134187D01*
X143374746Y-90236556D01*
X143152325Y-90385172D01*
X142963172Y-90574325D01*
X142814556Y-90796746D01*
X142748000Y-90957426D01*
X142681444Y-90796746D01*
X142532828Y-90574325D01*
X142343675Y-90385172D01*
X142121254Y-90236556D01*
X141874114Y-90134187D01*
X141611751Y-90082000D01*
X141344249Y-90082000D01*
X141081886Y-90134187D01*
X140834746Y-90236556D01*
X140612325Y-90385172D01*
X140423172Y-90574325D01*
X140274556Y-90796746D01*
X140172187Y-91043886D01*
X140120000Y-91306249D01*
X140120000Y-91573751D01*
X140172187Y-91836114D01*
X140227942Y-91970718D01*
X140130099Y-91905341D01*
X139964854Y-91836894D01*
X139789430Y-91802000D01*
X139610570Y-91802000D01*
X139435146Y-91836894D01*
X139269901Y-91905341D01*
X139121184Y-92004711D01*
X138994711Y-92131184D01*
X138895341Y-92279901D01*
X138826894Y-92445146D01*
X138792000Y-92620570D01*
X138792000Y-92799430D01*
X138819762Y-92939000D01*
X138675238Y-92939000D01*
X138703000Y-92799430D01*
X138703000Y-92620570D01*
X138668106Y-92445146D01*
X138599659Y-92279901D01*
X138500289Y-92131184D01*
X138373816Y-92004711D01*
X138225099Y-91905341D01*
X138059854Y-91836894D01*
X137884430Y-91802000D01*
X137705570Y-91802000D01*
X137530146Y-91836894D01*
X137364901Y-91905341D01*
X137216184Y-92004711D01*
X137089711Y-92131184D01*
X136990341Y-92279901D01*
X136921894Y-92445146D01*
X136887000Y-92620570D01*
X136887000Y-92799430D01*
X136914762Y-92939000D01*
X121183000Y-92939000D01*
X121183000Y-90388940D01*
X121261301Y-90441259D01*
X121336779Y-90472523D01*
X121331351Y-90490415D01*
X121321543Y-90590000D01*
X121321543Y-92290000D01*
X121331351Y-92389585D01*
X121360399Y-92485343D01*
X121407571Y-92573595D01*
X121471052Y-92650948D01*
X121548405Y-92714429D01*
X121636657Y-92761601D01*
X121732415Y-92790649D01*
X121832000Y-92800457D01*
X123532000Y-92800457D01*
X123631585Y-92790649D01*
X123727343Y-92761601D01*
X123815595Y-92714429D01*
X123892948Y-92650948D01*
X123956429Y-92573595D01*
X124003601Y-92485343D01*
X124032649Y-92389585D01*
X124042457Y-92290000D01*
X124042457Y-92119025D01*
X124167172Y-92305675D01*
X124356325Y-92494828D01*
X124578746Y-92643444D01*
X124825886Y-92745813D01*
X125088249Y-92798000D01*
X125355751Y-92798000D01*
X125618114Y-92745813D01*
X125865254Y-92643444D01*
X126087675Y-92494828D01*
X126276828Y-92305675D01*
X126425444Y-92083254D01*
X126492000Y-91922574D01*
X126558556Y-92083254D01*
X126707172Y-92305675D01*
X126896325Y-92494828D01*
X127118746Y-92643444D01*
X127365886Y-92745813D01*
X127628249Y-92798000D01*
X127895751Y-92798000D01*
X128158114Y-92745813D01*
X128405254Y-92643444D01*
X128627675Y-92494828D01*
X128816828Y-92305675D01*
X128965444Y-92083254D01*
X129067813Y-91836114D01*
X129120000Y-91573751D01*
X129120000Y-91306249D01*
X129067813Y-91043886D01*
X128965444Y-90796746D01*
X128816828Y-90574325D01*
X128627675Y-90385172D01*
X128405254Y-90236556D01*
X128158114Y-90134187D01*
X128143952Y-90131370D01*
X133331000Y-90131370D01*
X133331000Y-90310230D01*
X133365894Y-90485654D01*
X133434341Y-90650899D01*
X133533711Y-90799616D01*
X133660184Y-90926089D01*
X133808901Y-91025459D01*
X133974146Y-91093906D01*
X134149570Y-91128800D01*
X134328430Y-91128800D01*
X134503854Y-91093906D01*
X134669099Y-91025459D01*
X134817816Y-90926089D01*
X134944289Y-90799616D01*
X135043659Y-90650899D01*
X135112106Y-90485654D01*
X135147000Y-90310230D01*
X135147000Y-90131370D01*
X135112106Y-89955946D01*
X135043659Y-89790701D01*
X134944289Y-89641984D01*
X134874875Y-89572570D01*
X136760000Y-89572570D01*
X136760000Y-89751430D01*
X136794894Y-89926854D01*
X136863341Y-90092099D01*
X136962711Y-90240816D01*
X137089184Y-90367289D01*
X137237901Y-90466659D01*
X137403146Y-90535106D01*
X137578570Y-90570000D01*
X137757430Y-90570000D01*
X137932854Y-90535106D01*
X138098099Y-90466659D01*
X138246816Y-90367289D01*
X138373289Y-90240816D01*
X138472659Y-90092099D01*
X138541106Y-89926854D01*
X138576000Y-89751430D01*
X138576000Y-89572570D01*
X138541106Y-89397146D01*
X138472659Y-89231901D01*
X138373289Y-89083184D01*
X138246816Y-88956711D01*
X138098099Y-88857341D01*
X137932854Y-88788894D01*
X137757430Y-88754000D01*
X137578570Y-88754000D01*
X137403146Y-88788894D01*
X137237901Y-88857341D01*
X137089184Y-88956711D01*
X136962711Y-89083184D01*
X136863341Y-89231901D01*
X136794894Y-89397146D01*
X136760000Y-89572570D01*
X134874875Y-89572570D01*
X134817816Y-89515511D01*
X134669099Y-89416141D01*
X134503854Y-89347694D01*
X134328430Y-89312800D01*
X134149570Y-89312800D01*
X133974146Y-89347694D01*
X133808901Y-89416141D01*
X133660184Y-89515511D01*
X133533711Y-89641984D01*
X133434341Y-89790701D01*
X133365894Y-89955946D01*
X133331000Y-90131370D01*
X128143952Y-90131370D01*
X127895751Y-90082000D01*
X127628249Y-90082000D01*
X127365886Y-90134187D01*
X127264429Y-90176212D01*
X127298400Y-90005430D01*
X127298400Y-89826570D01*
X127263506Y-89651146D01*
X127195059Y-89485901D01*
X127095689Y-89337184D01*
X126969216Y-89210711D01*
X126820499Y-89111341D01*
X126655254Y-89042894D01*
X126479830Y-89008000D01*
X126300970Y-89008000D01*
X126125546Y-89042894D01*
X125960301Y-89111341D01*
X125811584Y-89210711D01*
X125685111Y-89337184D01*
X125585741Y-89485901D01*
X125520400Y-89643647D01*
X125520400Y-89547170D01*
X125485506Y-89371746D01*
X125417059Y-89206501D01*
X125317689Y-89057784D01*
X125191216Y-88931311D01*
X125042499Y-88831941D01*
X124877254Y-88763494D01*
X124701830Y-88728600D01*
X124522970Y-88728600D01*
X124347546Y-88763494D01*
X124182301Y-88831941D01*
X124033584Y-88931311D01*
X123907111Y-89057784D01*
X123850400Y-89142658D01*
X123793689Y-89057784D01*
X123667216Y-88931311D01*
X123518499Y-88831941D01*
X123416998Y-88789898D01*
X123581854Y-88757106D01*
X123747099Y-88688659D01*
X123895816Y-88589289D01*
X124022289Y-88462816D01*
X124121659Y-88314099D01*
X124190106Y-88148854D01*
X124225000Y-87973430D01*
X124225000Y-87794570D01*
X124190106Y-87619146D01*
X124121659Y-87453901D01*
X124022289Y-87305184D01*
X123895816Y-87178711D01*
X123747099Y-87079341D01*
X123581854Y-87010894D01*
X123406430Y-86976000D01*
X123227570Y-86976000D01*
X123052146Y-87010894D01*
X122886901Y-87079341D01*
X122738184Y-87178711D01*
X122611711Y-87305184D01*
X122512341Y-87453901D01*
X122443894Y-87619146D01*
X122409000Y-87794570D01*
X122409000Y-87973430D01*
X122443894Y-88148854D01*
X122512341Y-88314099D01*
X122611711Y-88462816D01*
X122738184Y-88589289D01*
X122886901Y-88688659D01*
X122988402Y-88730702D01*
X122823546Y-88763494D01*
X122658301Y-88831941D01*
X122509584Y-88931311D01*
X122389900Y-89050995D01*
X122270216Y-88931311D01*
X122121499Y-88831941D01*
X121956254Y-88763494D01*
X121780830Y-88728600D01*
X121601970Y-88728600D01*
X121426546Y-88763494D01*
X121261301Y-88831941D01*
X121183000Y-88884260D01*
X121183000Y-86464915D01*
X121197946Y-86471106D01*
X121373370Y-86506000D01*
X121552230Y-86506000D01*
X121586566Y-86499170D01*
X126828600Y-86499170D01*
X126828600Y-86678030D01*
X126863494Y-86853454D01*
X126931941Y-87018699D01*
X127031311Y-87167416D01*
X127157784Y-87293889D01*
X127306501Y-87393259D01*
X127471746Y-87461706D01*
X127647170Y-87496600D01*
X127826030Y-87496600D01*
X128001454Y-87461706D01*
X128166699Y-87393259D01*
X128315416Y-87293889D01*
X128441889Y-87167416D01*
X128541259Y-87018699D01*
X128609706Y-86853454D01*
X128644600Y-86678030D01*
X128644600Y-86677600D01*
X128788854Y-86648906D01*
X128954099Y-86580459D01*
X129017800Y-86537895D01*
X129012511Y-86543184D01*
X128913141Y-86691901D01*
X128844694Y-86857146D01*
X128809800Y-87032570D01*
X128809800Y-87211430D01*
X128844694Y-87386854D01*
X128913141Y-87552099D01*
X129012511Y-87700816D01*
X129138984Y-87827289D01*
X129287701Y-87926659D01*
X129452946Y-87995106D01*
X129628370Y-88030000D01*
X129807230Y-88030000D01*
X129982654Y-87995106D01*
X130147899Y-87926659D01*
X130296616Y-87827289D01*
X130423089Y-87700816D01*
X130522459Y-87552099D01*
X130590906Y-87386854D01*
X130625800Y-87211430D01*
X130625800Y-87032570D01*
X130620748Y-87007170D01*
X130664000Y-87007170D01*
X130664000Y-87186030D01*
X130698894Y-87361454D01*
X130767341Y-87526699D01*
X130866711Y-87675416D01*
X130993184Y-87801889D01*
X131141901Y-87901259D01*
X131307146Y-87969706D01*
X131482570Y-88004600D01*
X131661430Y-88004600D01*
X131836854Y-87969706D01*
X132002099Y-87901259D01*
X132067300Y-87857693D01*
X132132501Y-87901259D01*
X132297746Y-87969706D01*
X132473170Y-88004600D01*
X132652030Y-88004600D01*
X132827454Y-87969706D01*
X132992699Y-87901259D01*
X133141416Y-87801889D01*
X133267889Y-87675416D01*
X133357990Y-87540570D01*
X135998000Y-87540570D01*
X135998000Y-87719430D01*
X136032894Y-87894854D01*
X136101341Y-88060099D01*
X136200711Y-88208816D01*
X136327184Y-88335289D01*
X136475901Y-88434659D01*
X136641146Y-88503106D01*
X136816570Y-88538000D01*
X136995430Y-88538000D01*
X137170854Y-88503106D01*
X137336099Y-88434659D01*
X137484816Y-88335289D01*
X137611289Y-88208816D01*
X137710659Y-88060099D01*
X137779106Y-87894854D01*
X137814000Y-87719430D01*
X137814000Y-87540570D01*
X137779106Y-87365146D01*
X137710659Y-87199901D01*
X137611289Y-87051184D01*
X137529705Y-86969600D01*
X137636689Y-86862616D01*
X137736059Y-86713899D01*
X137804506Y-86548654D01*
X137839400Y-86373230D01*
X137839400Y-86245170D01*
X138385600Y-86245170D01*
X138385600Y-86424030D01*
X138420494Y-86599454D01*
X138488941Y-86764699D01*
X138588311Y-86913416D01*
X138714784Y-87039889D01*
X138863501Y-87139259D01*
X139028746Y-87207706D01*
X139204170Y-87242600D01*
X139383030Y-87242600D01*
X139558454Y-87207706D01*
X139723699Y-87139259D01*
X139872416Y-87039889D01*
X139998889Y-86913416D01*
X140098259Y-86764699D01*
X140166706Y-86599454D01*
X140201600Y-86424030D01*
X140201600Y-86245170D01*
X140166706Y-86069746D01*
X140098259Y-85904501D01*
X139998889Y-85755784D01*
X139917400Y-85674295D01*
X139981101Y-85716859D01*
X140146346Y-85785306D01*
X140321770Y-85820200D01*
X140500630Y-85820200D01*
X140612245Y-85797998D01*
X140604894Y-85815746D01*
X140570000Y-85991170D01*
X140570000Y-86170030D01*
X140604894Y-86345454D01*
X140673341Y-86510699D01*
X140772711Y-86659416D01*
X140899184Y-86785889D01*
X140943601Y-86815567D01*
X140884294Y-86958746D01*
X140849400Y-87134170D01*
X140849400Y-87313030D01*
X140884294Y-87488454D01*
X140952741Y-87653699D01*
X141052111Y-87802416D01*
X141178584Y-87928889D01*
X141327301Y-88028259D01*
X141492546Y-88096706D01*
X141667970Y-88131600D01*
X141846830Y-88131600D01*
X142022254Y-88096706D01*
X142187499Y-88028259D01*
X142309156Y-87946970D01*
X144380000Y-87946970D01*
X144380000Y-88125830D01*
X144414894Y-88301254D01*
X144483341Y-88466499D01*
X144582711Y-88615216D01*
X144709184Y-88741689D01*
X144857901Y-88841059D01*
X145023146Y-88909506D01*
X145198570Y-88944400D01*
X145377430Y-88944400D01*
X145552854Y-88909506D01*
X145718099Y-88841059D01*
X145866816Y-88741689D01*
X145993289Y-88615216D01*
X146092659Y-88466499D01*
X146161106Y-88301254D01*
X146196000Y-88125830D01*
X146196000Y-87946970D01*
X146161106Y-87771546D01*
X146092659Y-87606301D01*
X145993289Y-87457584D01*
X145866816Y-87331111D01*
X145718099Y-87231741D01*
X145552854Y-87163294D01*
X145377430Y-87128400D01*
X145198570Y-87128400D01*
X145023146Y-87163294D01*
X144857901Y-87231741D01*
X144709184Y-87331111D01*
X144582711Y-87457584D01*
X144483341Y-87606301D01*
X144414894Y-87771546D01*
X144380000Y-87946970D01*
X142309156Y-87946970D01*
X142336216Y-87928889D01*
X142462689Y-87802416D01*
X142562059Y-87653699D01*
X142630506Y-87488454D01*
X142665400Y-87313030D01*
X142665400Y-87134170D01*
X142630506Y-86958746D01*
X142562059Y-86793501D01*
X142462689Y-86644784D01*
X142336216Y-86518311D01*
X142291799Y-86488633D01*
X142351106Y-86345454D01*
X142386000Y-86170030D01*
X142386000Y-85991170D01*
X142351106Y-85815746D01*
X142282659Y-85650501D01*
X142183289Y-85501784D01*
X142056816Y-85375311D01*
X141908099Y-85275941D01*
X141742854Y-85207494D01*
X141567430Y-85172600D01*
X141388570Y-85172600D01*
X141276955Y-85194802D01*
X141284306Y-85177054D01*
X141319200Y-85001630D01*
X141319200Y-84822770D01*
X141284306Y-84647346D01*
X141215859Y-84482101D01*
X141116489Y-84333384D01*
X140990016Y-84206911D01*
X140841299Y-84107541D01*
X140676054Y-84039094D01*
X140500630Y-84004200D01*
X140321770Y-84004200D01*
X140146346Y-84039094D01*
X139981101Y-84107541D01*
X139832384Y-84206911D01*
X139705911Y-84333384D01*
X139606541Y-84482101D01*
X139538094Y-84647346D01*
X139503200Y-84822770D01*
X139503200Y-85001630D01*
X139538094Y-85177054D01*
X139606541Y-85342299D01*
X139705911Y-85491016D01*
X139787400Y-85572505D01*
X139723699Y-85529941D01*
X139558454Y-85461494D01*
X139383030Y-85426600D01*
X139204170Y-85426600D01*
X139028746Y-85461494D01*
X138863501Y-85529941D01*
X138714784Y-85629311D01*
X138588311Y-85755784D01*
X138488941Y-85904501D01*
X138420494Y-86069746D01*
X138385600Y-86245170D01*
X137839400Y-86245170D01*
X137839400Y-86194370D01*
X137804506Y-86018946D01*
X137736059Y-85853701D01*
X137636689Y-85704984D01*
X137510216Y-85578511D01*
X137361499Y-85479141D01*
X137196254Y-85410694D01*
X137020830Y-85375800D01*
X136841970Y-85375800D01*
X136666546Y-85410694D01*
X136501301Y-85479141D01*
X136352584Y-85578511D01*
X136226111Y-85704984D01*
X136126741Y-85853701D01*
X136058294Y-86018946D01*
X136023400Y-86194370D01*
X136023400Y-86373230D01*
X136058294Y-86548654D01*
X136126741Y-86713899D01*
X136226111Y-86862616D01*
X136307695Y-86944200D01*
X136200711Y-87051184D01*
X136101341Y-87199901D01*
X136032894Y-87365146D01*
X135998000Y-87540570D01*
X133357990Y-87540570D01*
X133367259Y-87526699D01*
X133435706Y-87361454D01*
X133470600Y-87186030D01*
X133470600Y-87007170D01*
X133435706Y-86831746D01*
X133367259Y-86666501D01*
X133267889Y-86517784D01*
X133141416Y-86391311D01*
X132992699Y-86291941D01*
X132827454Y-86223494D01*
X132652030Y-86188600D01*
X132473170Y-86188600D01*
X132297746Y-86223494D01*
X132132501Y-86291941D01*
X132067300Y-86335507D01*
X132002099Y-86291941D01*
X131836854Y-86223494D01*
X131661430Y-86188600D01*
X131482570Y-86188600D01*
X131307146Y-86223494D01*
X131141901Y-86291941D01*
X130993184Y-86391311D01*
X130866711Y-86517784D01*
X130767341Y-86666501D01*
X130698894Y-86831746D01*
X130664000Y-87007170D01*
X130620748Y-87007170D01*
X130590906Y-86857146D01*
X130522459Y-86691901D01*
X130423089Y-86543184D01*
X130296616Y-86416711D01*
X130147899Y-86317341D01*
X129982654Y-86248894D01*
X129807230Y-86214000D01*
X129628370Y-86214000D01*
X129452946Y-86248894D01*
X129287701Y-86317341D01*
X129224000Y-86359905D01*
X129229289Y-86354616D01*
X129328659Y-86205899D01*
X129397106Y-86040654D01*
X129432000Y-85865230D01*
X129432000Y-85686370D01*
X129397106Y-85510946D01*
X129328659Y-85345701D01*
X129229289Y-85196984D01*
X129102816Y-85070511D01*
X128954099Y-84971141D01*
X128788854Y-84902694D01*
X128613430Y-84867800D01*
X128434570Y-84867800D01*
X128259146Y-84902694D01*
X128093901Y-84971141D01*
X127945184Y-85070511D01*
X127818711Y-85196984D01*
X127719341Y-85345701D01*
X127650894Y-85510946D01*
X127616000Y-85686370D01*
X127616000Y-85686800D01*
X127471746Y-85715494D01*
X127306501Y-85783941D01*
X127157784Y-85883311D01*
X127031311Y-86009784D01*
X126931941Y-86158501D01*
X126863494Y-86323746D01*
X126828600Y-86499170D01*
X121586566Y-86499170D01*
X121727654Y-86471106D01*
X121892899Y-86402659D01*
X122041616Y-86303289D01*
X122168089Y-86176816D01*
X122267459Y-86028099D01*
X122335906Y-85862854D01*
X122370800Y-85687430D01*
X122370800Y-85508570D01*
X122335906Y-85333146D01*
X122267459Y-85167901D01*
X122168089Y-85019184D01*
X122041616Y-84892711D01*
X121892899Y-84793341D01*
X121727654Y-84724894D01*
X121552230Y-84690000D01*
X121373370Y-84690000D01*
X121197946Y-84724894D01*
X121183000Y-84731085D01*
X121183000Y-83444139D01*
X121199294Y-83526054D01*
X121267741Y-83691299D01*
X121367111Y-83840016D01*
X121493584Y-83966489D01*
X121642301Y-84065859D01*
X121807546Y-84134306D01*
X121982970Y-84169200D01*
X122161830Y-84169200D01*
X122337254Y-84134306D01*
X122502499Y-84065859D01*
X122651216Y-83966489D01*
X122777689Y-83840016D01*
X122877059Y-83691299D01*
X122945506Y-83526054D01*
X122961400Y-83446149D01*
X122977294Y-83526054D01*
X123045741Y-83691299D01*
X123145111Y-83840016D01*
X123271584Y-83966489D01*
X123420301Y-84065859D01*
X123585546Y-84134306D01*
X123760970Y-84169200D01*
X123939830Y-84169200D01*
X124115254Y-84134306D01*
X124280499Y-84065859D01*
X124429216Y-83966489D01*
X124555689Y-83840016D01*
X124655059Y-83691299D01*
X124723506Y-83526054D01*
X124758400Y-83350630D01*
X124758400Y-83171770D01*
X124723506Y-82996346D01*
X124655059Y-82831101D01*
X124555689Y-82682384D01*
X124429216Y-82555911D01*
X124280499Y-82456541D01*
X124115254Y-82388094D01*
X123939830Y-82353200D01*
X123760970Y-82353200D01*
X123585546Y-82388094D01*
X123420301Y-82456541D01*
X123271584Y-82555911D01*
X123145111Y-82682384D01*
X123045741Y-82831101D01*
X122977294Y-82996346D01*
X122961400Y-83076251D01*
X122945506Y-82996346D01*
X122877059Y-82831101D01*
X122777689Y-82682384D01*
X122651216Y-82555911D01*
X122502499Y-82456541D01*
X122337254Y-82388094D01*
X122334080Y-82387463D01*
X122335906Y-82383054D01*
X122354408Y-82290040D01*
X122391746Y-82305506D01*
X122567170Y-82340400D01*
X122746030Y-82340400D01*
X122921454Y-82305506D01*
X123086699Y-82237059D01*
X123235416Y-82137689D01*
X123361889Y-82011216D01*
X123461259Y-81862499D01*
X123529706Y-81697254D01*
X123564600Y-81521830D01*
X123564600Y-81444570D01*
X127133400Y-81444570D01*
X127133400Y-81623430D01*
X127168294Y-81798854D01*
X127236741Y-81964099D01*
X127314251Y-82080100D01*
X127236741Y-82196101D01*
X127168294Y-82361346D01*
X127133400Y-82536770D01*
X127133400Y-82715630D01*
X127168294Y-82891054D01*
X127236741Y-83056299D01*
X127336111Y-83205016D01*
X127354195Y-83223100D01*
X127336111Y-83241184D01*
X127236741Y-83389901D01*
X127168294Y-83555146D01*
X127133400Y-83730570D01*
X127133400Y-83909430D01*
X127168294Y-84084854D01*
X127236741Y-84250099D01*
X127336111Y-84398816D01*
X127462584Y-84525289D01*
X127611301Y-84624659D01*
X127776546Y-84693106D01*
X127951970Y-84728000D01*
X128130830Y-84728000D01*
X128306254Y-84693106D01*
X128471499Y-84624659D01*
X128569115Y-84559434D01*
X128631511Y-84652816D01*
X128757984Y-84779289D01*
X128906701Y-84878659D01*
X129071946Y-84947106D01*
X129247370Y-84982000D01*
X129426230Y-84982000D01*
X129601654Y-84947106D01*
X129766899Y-84878659D01*
X129915616Y-84779289D01*
X130042089Y-84652816D01*
X130141459Y-84504099D01*
X130209906Y-84338854D01*
X130244800Y-84163430D01*
X130244800Y-83984570D01*
X132264200Y-83984570D01*
X132264200Y-84163430D01*
X132299094Y-84338854D01*
X132367541Y-84504099D01*
X132466911Y-84652816D01*
X132593384Y-84779289D01*
X132742101Y-84878659D01*
X132907346Y-84947106D01*
X133082770Y-84982000D01*
X133261630Y-84982000D01*
X133437054Y-84947106D01*
X133602299Y-84878659D01*
X133751016Y-84779289D01*
X133877489Y-84652816D01*
X133976859Y-84504099D01*
X134045306Y-84338854D01*
X134080200Y-84163430D01*
X134080200Y-83984570D01*
X134045306Y-83809146D01*
X133976859Y-83643901D01*
X133877489Y-83495184D01*
X133751016Y-83368711D01*
X133602299Y-83269341D01*
X133437054Y-83200894D01*
X133261630Y-83166000D01*
X133082770Y-83166000D01*
X132907346Y-83200894D01*
X132742101Y-83269341D01*
X132593384Y-83368711D01*
X132466911Y-83495184D01*
X132367541Y-83643901D01*
X132299094Y-83809146D01*
X132264200Y-83984570D01*
X130244800Y-83984570D01*
X130209906Y-83809146D01*
X130141459Y-83643901D01*
X130042089Y-83495184D01*
X129915616Y-83368711D01*
X129766899Y-83269341D01*
X129601654Y-83200894D01*
X129426230Y-83166000D01*
X129247370Y-83166000D01*
X129071946Y-83200894D01*
X128906701Y-83269341D01*
X128809085Y-83334566D01*
X128746689Y-83241184D01*
X128728605Y-83223100D01*
X128746689Y-83205016D01*
X128846059Y-83056299D01*
X128914506Y-82891054D01*
X128949400Y-82715630D01*
X128949400Y-82536770D01*
X128914506Y-82361346D01*
X128846059Y-82196101D01*
X128768549Y-82080100D01*
X128846059Y-81964099D01*
X128914506Y-81798854D01*
X128949400Y-81623430D01*
X128949400Y-81444570D01*
X129140000Y-81444570D01*
X129140000Y-81623430D01*
X129174894Y-81798854D01*
X129243341Y-81964099D01*
X129342711Y-82112816D01*
X129469184Y-82239289D01*
X129617901Y-82338659D01*
X129783146Y-82407106D01*
X129958570Y-82442000D01*
X130137430Y-82442000D01*
X130312854Y-82407106D01*
X130478099Y-82338659D01*
X130626816Y-82239289D01*
X130753289Y-82112816D01*
X130852659Y-81964099D01*
X130921106Y-81798854D01*
X130956000Y-81623430D01*
X130956000Y-81444570D01*
X131908600Y-81444570D01*
X131908600Y-81623430D01*
X131943494Y-81798854D01*
X132011941Y-81964099D01*
X132111311Y-82112816D01*
X132237784Y-82239289D01*
X132386501Y-82338659D01*
X132551746Y-82407106D01*
X132727170Y-82442000D01*
X132906030Y-82442000D01*
X133081454Y-82407106D01*
X133246699Y-82338659D01*
X133395416Y-82239289D01*
X133521889Y-82112816D01*
X133621259Y-81964099D01*
X133689706Y-81798854D01*
X133724600Y-81623430D01*
X133724600Y-81444570D01*
X133694286Y-81292170D01*
X140874800Y-81292170D01*
X140874800Y-81471030D01*
X140909694Y-81646454D01*
X140978141Y-81811699D01*
X141077511Y-81960416D01*
X141203984Y-82086889D01*
X141352701Y-82186259D01*
X141517946Y-82254706D01*
X141693370Y-82289600D01*
X141872230Y-82289600D01*
X142047654Y-82254706D01*
X142212899Y-82186259D01*
X142361616Y-82086889D01*
X142488089Y-81960416D01*
X142587459Y-81811699D01*
X142655906Y-81646454D01*
X142690800Y-81471030D01*
X142690800Y-81292170D01*
X142655906Y-81116746D01*
X142587459Y-80951501D01*
X142488089Y-80802784D01*
X142361616Y-80676311D01*
X142212899Y-80576941D01*
X142047654Y-80508494D01*
X141872230Y-80473600D01*
X141693370Y-80473600D01*
X141517946Y-80508494D01*
X141352701Y-80576941D01*
X141203984Y-80676311D01*
X141077511Y-80802784D01*
X140978141Y-80951501D01*
X140909694Y-81116746D01*
X140874800Y-81292170D01*
X133694286Y-81292170D01*
X133689706Y-81269146D01*
X133621259Y-81103901D01*
X133521889Y-80955184D01*
X133395416Y-80828711D01*
X133246699Y-80729341D01*
X133081454Y-80660894D01*
X132906030Y-80626000D01*
X132727170Y-80626000D01*
X132551746Y-80660894D01*
X132386501Y-80729341D01*
X132237784Y-80828711D01*
X132111311Y-80955184D01*
X132011941Y-81103901D01*
X131943494Y-81269146D01*
X131908600Y-81444570D01*
X130956000Y-81444570D01*
X130921106Y-81269146D01*
X130852659Y-81103901D01*
X130753289Y-80955184D01*
X130626816Y-80828711D01*
X130478099Y-80729341D01*
X130312854Y-80660894D01*
X130137430Y-80626000D01*
X129958570Y-80626000D01*
X129783146Y-80660894D01*
X129617901Y-80729341D01*
X129469184Y-80828711D01*
X129342711Y-80955184D01*
X129243341Y-81103901D01*
X129174894Y-81269146D01*
X129140000Y-81444570D01*
X128949400Y-81444570D01*
X128914506Y-81269146D01*
X128846059Y-81103901D01*
X128746689Y-80955184D01*
X128620216Y-80828711D01*
X128471499Y-80729341D01*
X128306254Y-80660894D01*
X128130830Y-80626000D01*
X127951970Y-80626000D01*
X127776546Y-80660894D01*
X127611301Y-80729341D01*
X127462584Y-80828711D01*
X127336111Y-80955184D01*
X127236741Y-81103901D01*
X127168294Y-81269146D01*
X127133400Y-81444570D01*
X123564600Y-81444570D01*
X123564600Y-81342970D01*
X123529706Y-81167546D01*
X123461259Y-81002301D01*
X123361889Y-80853584D01*
X123235416Y-80727111D01*
X123086699Y-80627741D01*
X122921454Y-80559294D01*
X122746030Y-80524400D01*
X122567170Y-80524400D01*
X122391746Y-80559294D01*
X122226501Y-80627741D01*
X122077784Y-80727111D01*
X121951311Y-80853584D01*
X121851941Y-81002301D01*
X121783494Y-81167546D01*
X121764992Y-81260560D01*
X121727654Y-81245094D01*
X121552230Y-81210200D01*
X121373370Y-81210200D01*
X121197946Y-81245094D01*
X121183000Y-81251285D01*
X121183000Y-77380570D01*
X123044000Y-77380570D01*
X123044000Y-77559430D01*
X123078894Y-77734854D01*
X123147341Y-77900099D01*
X123246711Y-78048816D01*
X123373184Y-78175289D01*
X123521901Y-78274659D01*
X123687146Y-78343106D01*
X123862570Y-78378000D01*
X124041430Y-78378000D01*
X124216854Y-78343106D01*
X124382099Y-78274659D01*
X124530816Y-78175289D01*
X124657289Y-78048816D01*
X124756659Y-77900099D01*
X124825106Y-77734854D01*
X124860000Y-77559430D01*
X124860000Y-77380570D01*
X132950000Y-77380570D01*
X132950000Y-77559430D01*
X132984894Y-77734854D01*
X133053341Y-77900099D01*
X133152711Y-78048816D01*
X133279184Y-78175289D01*
X133427901Y-78274659D01*
X133593146Y-78343106D01*
X133768570Y-78378000D01*
X133947430Y-78378000D01*
X134122854Y-78343106D01*
X134288099Y-78274659D01*
X134436816Y-78175289D01*
X134563289Y-78048816D01*
X134620000Y-77963942D01*
X134676711Y-78048816D01*
X134803184Y-78175289D01*
X134951901Y-78274659D01*
X135117146Y-78343106D01*
X135292570Y-78378000D01*
X135471430Y-78378000D01*
X135646854Y-78343106D01*
X135812099Y-78274659D01*
X135960816Y-78175289D01*
X136087289Y-78048816D01*
X136186659Y-77900099D01*
X136255106Y-77734854D01*
X136290000Y-77559430D01*
X136290000Y-77380570D01*
X136255106Y-77205146D01*
X136186659Y-77039901D01*
X136087289Y-76891184D01*
X135960816Y-76764711D01*
X135812099Y-76665341D01*
X135646854Y-76596894D01*
X135471430Y-76562000D01*
X135292570Y-76562000D01*
X135117146Y-76596894D01*
X134951901Y-76665341D01*
X134803184Y-76764711D01*
X134676711Y-76891184D01*
X134620000Y-76976058D01*
X134563289Y-76891184D01*
X134436816Y-76764711D01*
X134288099Y-76665341D01*
X134122854Y-76596894D01*
X133947430Y-76562000D01*
X133768570Y-76562000D01*
X133593146Y-76596894D01*
X133427901Y-76665341D01*
X133279184Y-76764711D01*
X133152711Y-76891184D01*
X133053341Y-77039901D01*
X132984894Y-77205146D01*
X132950000Y-77380570D01*
X124860000Y-77380570D01*
X124825106Y-77205146D01*
X124756659Y-77039901D01*
X124657289Y-76891184D01*
X124530816Y-76764711D01*
X124382099Y-76665341D01*
X124216854Y-76596894D01*
X124041430Y-76562000D01*
X123862570Y-76562000D01*
X123687146Y-76596894D01*
X123521901Y-76665341D01*
X123373184Y-76764711D01*
X123246711Y-76891184D01*
X123147341Y-77039901D01*
X123078894Y-77205146D01*
X123044000Y-77380570D01*
X121183000Y-77380570D01*
X121183000Y-74193000D01*
X131776432Y-74193000D01*
X131707141Y-74296701D01*
M02*
